<svg xmlns="http://www.w3.org/2000/svg" viewBox="0 0 272 200.06272">
  <title>peritus_logo_centr</title>
  <g>
    <g>
      <path d="M21.01627,119.88232v14.08793h8.70011a10.24742,10.24742,0,0,0,2.7179-.35622,6.17694,6.17694,0,0,0,2.30447-1.17854,5.71951,5.71951,0,0,0,1.59475-2.166,8.24131,8.24131,0,0,0,.59066-3.316q0-3.67263-1.94915-5.37307a8.01081,8.01081,0,0,0-5.43585-1.69812Zm22.64316,6.90691a12.49251,12.49251,0,0,1-.64973,3.86416,10.55053,10.55053,0,0,1-2.09774,3.67312,11.09144,11.09144,0,0,1-3.84014,2.76868,14.07432,14.07432,0,0,1-5.87792,1.09546H21.01627v10.85414h5.13959v4.22131H10.67711v-4.22131h3.84014V119.88232H10.67711v-4.22224H30.54329q6.14507,0,9.63038,2.87852,3.48577,2.878,3.48577,8.25063" transform="translate(0 0.03136)" fill="#b7905c"/>
      <polygon points="47.797 153.298 47.797 149.077 51.814 149.077 51.814 119.968 47.915 119.968 47.915 115.747 78.519 115.747 78.519 125.559 73.792 125.559 73.792 119.968 58.313 119.968 58.313 131.754 72.67 131.48 72.67 135.811 58.313 135.591 58.313 149.077 74.561 149.077 74.561 143.266 79.405 143.266 79.405 153.298 47.797 153.298" fill="#b7905c"/>
      <path d="M114.31829,126.32283a6.9241,6.9241,0,0,0-.59157-3.00033,5.5588,5.5588,0,0,0-1.56524-2.00914,5.99752,5.99752,0,0,0-2.30354-1.101,11.342,11.342,0,0,0-2.74837-.3304H98.11416v13.15676h8.99541a11.62289,11.62289,0,0,0,2.45214-.275,6.41934,6.41934,0,0,0,2.334-1.01795,5.61712,5.61712,0,0,0,1.74242-2.03775,7.289,7.289,0,0,0,.68017-3.38517M98.11416,137.14926v11.89609h4.54892v4.2213h-14.829v-4.2213h3.78108V119.882H87.83406v-4.22131h20.33962q6.2032,0,9.57039,2.74468,3.36807,2.74654,3.36762,7.90736a12.06888,12.06888,0,0,1-.35439,2.801,9.957,9.957,0,0,1-1.21082,2.88218,9.66749,9.66749,0,0,1-2.27493,2.526,10.08031,10.08031,0,0,1-3.48577,1.72949l6.38088,12.95833,4.37174.54081v3.24212a13.27238,13.27238,0,0,1-2.74654.658,19.48455,19.48455,0,0,1-2.57026.21873,4.6799,4.6799,0,0,1-3.13135-.87674,8.19286,8.19286,0,0,1-1.832-2.52134l-6.32089-13.322Z" transform="translate(0 0.03136)" fill="#b7905c"/>
      <polygon points="130.666 153.298 130.666 149.077 134.507 149.077 134.507 119.913 130.666 119.913 130.666 115.692 144.905 115.692 144.905 119.913 141.006 119.913 141.006 149.077 144.905 149.077 144.905 153.298 130.666 153.298" fill="#b7905c"/>
      <polygon points="161.328 153.298 161.328 149.077 166.173 149.077 166.173 119.913 156.682 119.913 156.682 125.942 151.956 125.942 151.956 115.692 186.711 115.692 186.711 125.942 181.985 125.942 181.985 119.913 172.613 119.913 172.613 149.077 177.458 149.077 177.458 153.298 161.328 153.298" fill="#b7905c"/>
      <path d="M228.00715,139.59354q0,6.48148-3.92139,10.29579c-2.61453,2.54349-7.57787,3.81615-13.0423,3.81615a24.30047,24.30047,0,0,1-7.28346-.96165,12.89226,12.89226,0,0,1-4.98361-2.77237,10.79279,10.79279,0,0,1-2.85914-4.44742,18.03229,18.03229,0,0,1-.91458-5.93051v-19.7111h-3.48484v-4.22224h13.88307v4.22224h-4.01735v19.66128q0,4.83412,2.5112,7.19486,2.51118,2.36169,7.23733,2.36169c3.07229,0,6.37809-.76785,8.07252-2.30632q2.5389-2.30629,2.54074-7.25023V119.88244H217.787v-4.22224h13.824v4.22224h-3.60386Z" transform="translate(0 0.03136)" fill="#b7905c"/>
      <path d="M242.50406,143.01552l.05813,4.49449a18.71234,18.71234,0,0,0,4.43173,1.28928,26.88254,26.88254,0,0,0,4.19453.35531,20.29055,20.29055,0,0,0,4.94117-.54728,9.44763,9.44763,0,0,0,2.836-1.39818,5.64109,5.64109,0,0,0,1.68333-1.974,5.04547,5.04547,0,0,0,.56115-2.275,4.95071,4.95071,0,0,0-.67927-2.74006,5.13819,5.13819,0,0,0-1.891-1.69995,14.1131,14.1131,0,0,0-2.83509-1.1241c-1.08439-.31009-3.19875-.62942-4.4982-.95889a38.78151,38.78151,0,0,1-5.08143-1.37048,18.30148,18.30148,0,0,1-4.1346-2.00083,9.14931,9.14931,0,0,1-2.80647-2.87759,7.65676,7.65676,0,0,1-1.03363-4.057,10.20461,10.20461,0,0,1,1.18127-4.74275,10.10306,10.10306,0,0,1,3.04277-3.42485,14.17044,14.17044,0,0,1,4.48986-2.08389,20.86546,20.86546,0,0,1,5.58259-.71248c.86566,0,2.73544.03692,3.7599.10891q1.53516.11073,3.1009.35715a23.1293,23.1293,0,0,1,3.10276.71248,17.58369,17.58369,0,0,1,2.83514,1.12314l.059,7.83906h-4.78519l-.05909-4.549a12.88471,12.88471,0,0,0-3.39714-.76785c-1.35848-.14488-3.49312-.21963-4.55723-.21963a11.73449,11.73449,0,0,0-2.92465.35622,7.57844,7.57844,0,0,0-2.42169,1.0687,5.50839,5.50839,0,0,0-1.65472,1.7821,4.776,4.776,0,0,0-.62018,2.44014,3.61359,3.61359,0,0,0,.7383,2.274,6.56563,6.56563,0,0,0,1.97962,1.67229,14.74282,14.74282,0,0,0,2.86466,1.23391q1.62514.52187,3.398.90442c1.65387.36549,4.20287.79463,5.79765,1.28838a16.91039,16.91039,0,0,1,4.28313,1.974,9.745,9.745,0,0,1,3.04277,3.124,9.09569,9.09569,0,0,1,1.15176,4.79719,10.16108,10.16108,0,0,1-1.15176,4.98823,9.78367,9.78367,0,0,1-3.22,3.45345,14.47978,14.47978,0,0,1-4.96331,2.00083,39.63669,39.63669,0,0,1-7.30377.63035,42.53271,42.53271,0,0,1-7.03058-.60358,24.28461,24.28461,0,0,1-6.7353-2.13741q0-1.97408-.02952-3.9749-.02907-1.999-.02952-4.02843Z" transform="translate(0 0.03136)" fill="#b7905c"/>
    </g>
    <g>
      <polygon points="29.188 168.53 30.816 168.53 30.816 177.484 29.188 177.484 29.188 173.517 25.299 173.517 25.299 177.484 23.671 177.484 23.671 168.53 25.299 168.53 25.299 172.109 29.188 172.109 29.188 168.53" fill="#050606"/>
      <path d="M37.24332,170.23025q-.29763.68524-.67834,1.66674-.38208.9815-.7946,2.13188h2.94586q-.41389-1.15038-.80105-2.14481-.38761-.99533-.67186-1.65382m2.64225,7.22254q-.18136-.5302-.37563-1.04655-.19518-.51636-.37563-1.05949h-3.782q-.18136.54266-.36915,1.06594-.18829.52329-.36915,1.0401H32.92048q.50392-1.43417.9552-2.6487.45267-1.21406.88507-2.29985.43189-1.08532.85828-2.06727.4264-.98289.87766-1.93808h1.55417q.45128.95659.87859,1.93808.42635.9815.85921,2.06727.43328,1.08534.89152,2.29985.45821,1.21546.96258,2.6487Z" transform="translate(0 0.03136)" fill="#050606"/>
      <path d="M48.1186,174.77788a9.58316,9.58316,0,0,1-.66634,1.25975,3.93929,3.93929,0,0,1-.7494.88505,2.70723,2.70723,0,0,1-.90535.51775,3.489,3.489,0,0,1-1.11762.167,4.18506,4.18506,0,0,1-.78261-.07752,2.98721,2.98721,0,0,1-.66541-.19381l.29716-1.34373a2.81248,2.81248,0,0,0,.51961.16151,2.66665,2.66665,0,0,0,.55833.05906,1.72469,1.72469,0,0,0,.993-.27134,2.5258,2.5258,0,0,0,.73368-.8915q-.5454-.87907-1.0447-1.771-.49974-.89151-.92751-1.7378-.42775-.84584-.78539-1.62153-.35715-.77385-.64232-1.42125H44.7565q.20625.5302.47251,1.13791.26577.60635.57036,1.25237.30451.64648.64139,1.31881.33641.6714.67372,1.34373.46653-1.15038.89428-2.4549.42914-1.30682.80477-2.59793h1.75811q-.31148.95794-.623,1.8024-.31144.84721-.61739,1.61506-.30456.76969-.60911,1.47294-.30456.70463-.60356,1.38894" transform="translate(0 0.03136)" fill="#050606"/>
      <path d="M53.92988,171.10883a1.99969,1.99969,0,0,0,.46514,1.50525,2.13767,2.13767,0,0,0,1.48584.43283,6.88225,6.88225,0,0,0,.83339-.05168q.41942-.05122.71707-.10336v-4.393h1.628v8.9539h-1.628v-3.16553c-.22425.04339-.491.07938-.80105.10983s-.6248.04523-.9432.04523a5.55875,5.55875,0,0,1-1.544-.18735,2.28485,2.28485,0,0,1-1.64737-1.60861,5.01269,5.01269,0,0,1-.1938-1.48584V168.4989h1.628Z" transform="translate(0 0.03136)" fill="#050606"/>
      <polygon points="67.69 168.53 69.318 168.53 69.318 177.484 67.69 177.484 67.69 173.517 63.801 173.517 63.801 177.484 62.173 177.484 62.173 168.53 63.801 168.53 63.801 172.109 67.69 172.109 67.69 168.53" fill="#050606"/>
      <path d="M73.76291,172.969a4.61417,4.61417,0,0,0,.18087,1.33728,2.913,2.913,0,0,0,.5233,1.02165,2.381,2.381,0,0,0,.83336.65247,2.56262,2.56262,0,0,0,1.11117.23258,2.53644,2.53644,0,0,0,1.09824-.23258,2.38917,2.38917,0,0,0,.83336-.65247,2.92719,2.92719,0,0,0,.52237-1.02165,5.00578,5.00578,0,0,0,0-2.67362,2.92712,2.92712,0,0,0-.52237-1.02164,2.389,2.389,0,0,0-.83336-.65249,2.53664,2.53664,0,0,0-1.09824-.23257,2.56282,2.56282,0,0,0-1.11117.23257,2.3464,2.3464,0,0,0-.83336.65895,2.99526,2.99526,0,0,0-.5233,1.02164,4.54935,4.54935,0,0,0-.18087,1.32988m6.99,0a5.56878,5.56878,0,0,1-.3424,2.02853,4.20413,4.20413,0,0,1-.9303,1.46647,3.83,3.83,0,0,1-1.376.88505,4.71641,4.71641,0,0,1-1.67964.29718,4.76679,4.76679,0,0,1-1.68615-.29718,3.80853,3.80853,0,0,1-1.38248-.88505,4.257,4.257,0,0,1-.93675-1.46647,5.46984,5.46984,0,0,1-.34884-2.02853,5.41273,5.41273,0,0,1,.34884-2.02112,4.25238,4.25238,0,0,1,.94875-1.46648,3.91862,3.91862,0,0,1,1.38989-.89152,4.82284,4.82284,0,0,1,3.33349,0,3.78553,3.78553,0,0,1,1.376.89152,4.35083,4.35083,0,0,1,.93672,1.46648,5.43085,5.43085,0,0,1,.34887,2.02112" transform="translate(0 0.03136)" fill="#050606"/>
      <rect x="82.729" y="172.30294" width="3.4756" height="1.43509" fill="#050606"/>
      <path d="M88.54386,177.45279v-8.9539h1.61506v5.94343q.43882-.6977,1.00133-1.50523.562-.80845,1.16283-1.6086.60083-.80155,1.19516-1.544.59386-.74339,1.11117-1.28559h1.3308v8.9539H94.35807v-6.40855q-.54266.64509-1.14348,1.45355t-1.1822,1.66674q-.58144.85968-1.1241,1.7055t-.982,1.58276Z" transform="translate(0 0.03136)" fill="#050606"/>
      <path d="M103.05322,177.64659a4.98054,4.98054,0,0,1-1.80889-.31009,3.57225,3.57225,0,0,1-1.35665-.91089,4.05409,4.05409,0,0,1-.85273-1.46647,6.10945,6.10945,0,0,1-.29719-1.98976,5.36778,5.36778,0,0,1,.3424-1.98976,4.28811,4.28811,0,0,1,.93675-1.46647,3.93409,3.93409,0,0,1,1.39541-.91089,4.71517,4.71517,0,0,1,1.71842-.31009,5.60139,5.60139,0,0,1,1.00781.084,7.20029,7.20029,0,0,1,.78815.18735,3.22219,3.22219,0,0,1,.55557.21965c.14674.07752.24917.13381.31009.168l-.47806,1.33174a3.75975,3.75975,0,0,0-.885-.36917,4.277,4.277,0,0,0-1.24684-.17442,2.9239,2.9239,0,0,0-1.08532.20026,2.35575,2.35575,0,0,0-.87214.6008,2.79661,2.79661,0,0,0-.57495,1.00781,4.38106,4.38106,0,0,0-.20673,1.40833,4.94967,4.94967,0,0,0,.16149,1.305,2.8644,2.8644,0,0,0,.49744,1.02719,2.261,2.261,0,0,0,.85276.67186,2.92988,2.92988,0,0,0,1.24036.239,4.70789,4.70789,0,0,0,1.40833-.17442,5.60892,5.60892,0,0,0,.83984-.32948l.43928,1.33081a2.19228,2.19228,0,0,1-.4199.20673,6.04229,6.04229,0,0,1-.62666.20028,6.26648,6.26648,0,0,1-.814.156,7.79885,7.79885,0,0,1-.969.05722" transform="translate(0 0.03136)" fill="#050606"/>
      <path d="M112.03294,177.64659a4.98054,4.98054,0,0,1-1.80889-.31009,3.57225,3.57225,0,0,1-1.35665-.91089,4.05409,4.05409,0,0,1-.85273-1.46647,6.10945,6.10945,0,0,1-.29719-1.98976,5.36778,5.36778,0,0,1,.34239-1.98976,4.28811,4.28811,0,0,1,.93675-1.46647,3.93409,3.93409,0,0,1,1.39541-.91089,4.71517,4.71517,0,0,1,1.71842-.31009,5.60139,5.60139,0,0,1,1.00781.084,7.14881,7.14881,0,0,1,.78815.18735,3.22219,3.22219,0,0,1,.55557.21965c.14674.07752.24917.13381.31009.168l-.47806,1.33174a3.75974,3.75974,0,0,0-.885-.36917,4.277,4.277,0,0,0-1.24684-.17442,2.9239,2.9239,0,0,0-1.08532.20026,2.35575,2.35575,0,0,0-.87214.6008,2.79661,2.79661,0,0,0-.57495,1.00781,4.38106,4.38106,0,0,0-.20673,1.40833,4.94966,4.94966,0,0,0,.16149,1.305,2.8644,2.8644,0,0,0,.49744,1.02719,2.26823,2.26823,0,0,0,.85276.67186,2.92988,2.92988,0,0,0,1.24036.239,4.70789,4.70789,0,0,0,1.40833-.17442,5.60892,5.60892,0,0,0,.83984-.32948l.43928,1.33081a2.19228,2.19228,0,0,1-.4199.20673,6.0423,6.0423,0,0,1-.62666.20028,6.26648,6.26648,0,0,1-.814.156,7.79885,7.79885,0,0,1-.969.05722" transform="translate(0 0.03136)" fill="#050606"/>
      <path d="M120.88282,169.89394q-.03878.87907-.09046,1.7895a17.1999,17.1999,0,0,1-.18735,1.75811,9.54776,9.54776,0,0,1-.39408,1.59475,4.29576,4.29576,0,0,1-.71062,1.31143,3.32887,3.32887,0,0,1-1.13055.8989,3.9568,3.9568,0,0,1-1.66027.36084l-.1809-1.42125a3.40151,3.40151,0,0,0,.814-.18089,2.00047,2.00047,0,0,0,1.05949-.87121,3.61218,3.61218,0,0,0,.33595-.74385,10.20427,10.20427,0,0,0,.46514-2.51858q.11626-1.51169.11629-3.37317H124.914v8.9539h-1.64089v-7.55849Z" transform="translate(0 0.03136)" fill="#050606"/>
      <polygon points="128.028 177.484 128.028 168.53 133.778 168.53 133.778 169.913 129.656 169.913 129.656 172.122 133.326 172.122 133.326 173.479 129.656 173.479 129.656 176.102 134.088 176.102 134.088 177.484 128.028 177.484" fill="#050606"/>
      <path d="M139.902,169.89432q-.03874.77523-.09044,1.58922a15.48533,15.48533,0,0,1-.18735,1.6086,11.0528,11.0528,0,0,1-.38115,1.55045,6.2484,6.2484,0,0,1-.67186,1.42771h3.6565v-6.176Zm-4.2379,6.176h1.11114a6.698,6.698,0,0,0,.898-1.68612,10.139,10.139,0,0,0,.46516-1.8347,15.30871,15.30871,0,0,0,.17442-1.96392q.02628-1.01472.02583-2.08666h5.49122v7.5714h1.3308v3.7728h-1.56338v-2.3903h-6.36981v2.3903h-1.56335Z" transform="translate(0 0.03136)" fill="#050606"/>
      <path d="M148.54635,172.969a4.61417,4.61417,0,0,0,.18087,1.33728,2.91478,2.91478,0,0,0,.5242,1.02165,2.3781,2.3781,0,0,0,.83246.65247,2.56845,2.56845,0,0,0,1.11117.23258,2.53352,2.53352,0,0,0,1.09824-.23258,2.3927,2.3927,0,0,0,.83429-.65247,2.94293,2.94293,0,0,0,.52237-1.02165,5.03057,5.03057,0,0,0,0-2.67362,2.94286,2.94286,0,0,0-.52237-1.02164,2.39258,2.39258,0,0,0-.83429-.65249,2.53371,2.53371,0,0,0-1.09824-.23257,2.56865,2.56865,0,0,0-1.11117.23257,2.34358,2.34358,0,0,0-.83246.65895,2.99721,2.99721,0,0,0-.5242,1.02164,4.54936,4.54936,0,0,0-.18087,1.32988m6.99,0a5.56878,5.56878,0,0,1-.3424,2.02853,4.17768,4.17768,0,0,1-.9303,1.46647,3.83,3.83,0,0,1-1.376.88505,4.71148,4.71148,0,0,1-1.67874.29718,4.77187,4.77187,0,0,1-1.687-.29718,3.81614,3.81614,0,0,1-1.38248-.88505,4.26843,4.26843,0,0,1-.93582-1.46647,5.45017,5.45017,0,0,1-.3507-2.02853,5.39328,5.39328,0,0,1,.3507-2.02112,4.239,4.239,0,0,1,.94875-1.46648,3.915,3.915,0,0,1,1.389-.89152,4.82284,4.82284,0,0,1,3.33349,0,3.77023,3.77023,0,0,1,1.376.89152,4.33667,4.33667,0,0,1,.93672,1.46648,5.41215,5.41215,0,0,1,.34887,2.02112" transform="translate(0 0.03136)" fill="#050606"/>
      <path d="M159.89161,173.421v2.72715c.18.0166.37377.03045.58143.03875q.3087.01246.5676.012a6.32463,6.32463,0,0,0,.93672-.06368,2.459,2.459,0,0,0,.7494-.2261,1.351,1.351,0,0,0,.50389-.43285,1.19868,1.19868,0,0,0,.18735-.69862,1.09408,1.09408,0,0,0-.55557-1.05856,3.28913,3.28913,0,0,0-1.53755-.29809Zm0-1.27821h1.149a3.31458,3.31458,0,0,0,1.46-.26487.968.968,0,0,0,.52974-.95058.94491.94491,0,0,0-.54912-.91734,3.24223,3.24223,0,0,0-1.42771-.27134c-.2501,0-.47066.00462-.66538.01384-.19383.00831-.35994.02122-.49654.03877Zm1.09734,5.41368c-.47437,0-.95151-.01569-1.43419-.04522a6.67837,6.67837,0,0,1-1.26622-.18735v-8.69549c.18921-.03506.39225-.06644.60728-.0969s.43466-.05446.65894-.07106q.33641-.02632.66541-.03877.32948-.01246.62663-.01291a8.697,8.697,0,0,1,1.5117.12274,3.83,3.83,0,0,1,1.20809.407,2.11533,2.11533,0,0,1,.7946.7494,2.17247,2.17247,0,0,1,.28424,1.14991,1.89794,1.89794,0,0,1-.30361,1.08533,2.15492,2.15492,0,0,1-.84631.72354,2.359,2.359,0,0,1,1.20254.80107,2.22342,2.22342,0,0,1,.38763,1.34374,2.3474,2.3474,0,0,1-1.00874,2.07373,5.51889,5.51889,0,0,1-3.088.69124" transform="translate(0 0.03136)" fill="#050606"/>
      <path d="M171.06,170.23025q-.29763.68524-.67927,1.66674-.38068.9815-.79367,2.13188h2.945q-.41254-1.15038-.80015-2.14481-.38761-.99533-.67186-1.65382m2.64225,7.22254q-.18136-.5302-.37563-1.04655-.19518-.51636-.37563-1.05949h-3.782q-.18136.54266-.36915,1.06594-.18829.52329-.36915,1.0401h-1.69353q.50392-1.43417.9552-2.6487.45132-1.21406.88414-2.29985.43328-1.08532.85921-2.06727.4264-.98289.87766-1.93808h1.55417q.45267.95659.87859,1.93808.42635.9815.85921,2.06727.43328,1.08534.89152,2.29985.45821,1.21546.96258,2.6487Z" transform="translate(0 0.03136)" fill="#050606"/>
      <polygon points="183.056 168.53 183.056 169.938 180.305 169.938 180.305 177.484 178.663 177.484 178.663 169.938 175.911 169.938 175.911 168.53 183.056 168.53" fill="#050606"/>
      <polygon points="185.266 177.484 185.266 168.53 191.016 168.53 191.016 169.913 186.894 169.913 186.894 172.122 190.564 172.122 190.564 173.479 186.894 173.479 186.894 176.102 191.325 176.102 191.325 177.484 185.266 177.484" fill="#050606"/>
      <path d="M197.218,169.89394q-.03878.87907-.09139,1.7895a16.94972,16.94972,0,0,1-.18732,1.75811,9.37463,9.37463,0,0,1-.39408,1.59475,4.29454,4.29454,0,0,1-.70972,1.31143,3.32343,3.32343,0,0,1-1.13148.8989,3.9568,3.9568,0,0,1-1.66027.36084l-.1809-1.42125a3.42,3.42,0,0,0,.81491-.18089,2.003,2.003,0,0,0,1.05856-.87121,3.61238,3.61238,0,0,0,.33687-.74385,10.20427,10.20427,0,0,0,.46514-2.51858q.11626-1.51169.11629-3.37317h5.59363v8.9539h-1.64v-7.55849Z" transform="translate(0 0.03136)" fill="#050606"/>
      <path d="M206.68761,173.08493h-.335a2.52517,2.52517,0,0,0-.3627.02677v3.0234c.12091.00831.26027.01569.41993.01938s.3507.00553.57495.00553a5.249,5.249,0,0,0,.87214-.07013,2.32951,2.32951,0,0,0,.73647-.2455,1.43221,1.43221,0,0,0,.51037-.46514,1.30775,1.30775,0,0,0,.1938-.74294,1.27562,1.27562,0,0,0-.71617-1.22743,2.56647,2.56647,0,0,0-.82136-.25287,7.50443,7.50443,0,0,0-1.07242-.07107m4.30254,1.55138a2.47361,2.47361,0,0,1-1.07887,2.17618,5.285,5.285,0,0,1-3.02987.74385q-.54266,0-1.22006-.0646a10.10908,10.10908,0,0,1-1.29942-.20673v-8.78594h1.628v3.21721a3.49579,3.49579,0,0,1,.41348-.02584h.40053q4.18622,0,4.18625,2.94586" transform="translate(0 0.03136)" fill="#050606"/>
      <path d="M217.47661,177.64659a4.98054,4.98054,0,0,1-1.80889-.31009,3.58642,3.58642,0,0,1-1.35665-.91089,4.08042,4.08042,0,0,1-.85273-1.46647,6.13374,6.13374,0,0,1-.29719-1.98976,5.38677,5.38677,0,0,1,.3424-1.98976,4.30153,4.30153,0,0,1,.93675-1.46647,3.93777,3.93777,0,0,1,1.39634-.91089,4.71377,4.71377,0,0,1,1.7175-.31009,5.61178,5.61178,0,0,1,1.00871.084,7.17873,7.17873,0,0,1,.78725.18735,3.20468,3.20468,0,0,1,.5565.21965c.14581.07752.24917.13381.31009.168l-.479,1.33174a3.75974,3.75974,0,0,0-.885-.36917,4.27077,4.27077,0,0,0-1.24591-.17442,2.92038,2.92038,0,0,0-1.08532.20026,2.34079,2.34079,0,0,0-.87214.6008,2.79806,2.79806,0,0,0-.57588,1.00781,4.3821,4.3821,0,0,0-.20583,1.40833,4.91122,4.91122,0,0,0,.16152,1.305,2.84918,2.84918,0,0,0,.49744,1.02719,2.25078,2.25078,0,0,0,.85183.67186,2.93283,2.93283,0,0,0,1.24036.239,4.71879,4.71879,0,0,0,1.40926-.17442,5.64958,5.64958,0,0,0,.83981-.32948l.43838,1.33081a2.16493,2.16493,0,0,1-.4199.20673,6.01955,6.01955,0,0,1-.62573.20028,6.26648,6.26648,0,0,1-.814.156,7.80327,7.80327,0,0,1-.97.05722" transform="translate(0 0.03136)" fill="#050606"/>
      <path d="M228.0583,177.45279q-.33641-.51634-.77525-1.08532t-.92379-1.09824q-.48453-.5302-1.00136-1.00779a9.44859,9.44859,0,0,0-1.02071-.82691v4.01826h-1.628v-8.9539h1.628v3.69526q.42635-.42637.89152-.91089t.92382-.982q.4596-.497.87211-.96258.41393-.46514.7494-.83984h1.951q-.4264.49006-.90444,1.02072-.479.5302-.982,1.06594-.50392.53575-1.01426,1.06594-.51085.5302-1.00136,1.00781a11.84428,11.84428,0,0,1,1.10472.96258q.562.54957,1.10469,1.17575.54266.62711,1.04011,1.305.49695.67833.91089,1.35019Z" transform="translate(0 0.03136)" fill="#050606"/>
      <path d="M235.79135,170.23025q-.29759.68524-.67927,1.66674-.38064.9815-.79367,2.13188h2.945q-.41258-1.15038-.80015-2.14481-.38766-.99533-.67189-1.65382m2.64227,7.22254q-.18141-.5302-.37566-1.04655-.19518-.51636-.3765-1.05949h-3.78113q-.18132.54266-.36912,1.06594-.18834.52329-.36918,1.0401h-1.69353q.50392-1.43417.95523-2.6487.45128-1.21406.88414-2.29985.43328-1.08532.85918-2.06727.425-.98289.87766-1.93808h1.55417q.45272.95659.87862,1.93808.42635.9815.85828,2.06727.43463,1.08534.89242,2.29985.45821,1.21546.9626,2.6487Z" transform="translate(0 0.03136)" fill="#050606"/>
      <path d="M246.23664,169.816a5.59621,5.59621,0,0,0-.91089.07106,2.37423,2.37423,0,0,0-.73.239,1.26071,1.26071,0,0,0-.48448.45314,1.312,1.312,0,0,0-.17445.69679,1.36475,1.36475,0,0,0,.17445.72447,1.22219,1.22219,0,0,0,.50386.45221,2.52574,2.52574,0,0,0,.80111.23257,7.85829,7.85829,0,0,0,1.06591.06461h.71064V169.8548c-.30181-.02491-.62018-.03875-.95613-.03875m.11632-1.40742c.35346,0,.75306.0157,1.20155.04523a8.81787,8.81787,0,0,1,1.26622.17442V177.453h-1.628v-3.35933h-.94323c-.11164,0-.22791-.00276-.34884-.00738a2.46112,2.46112,0,0,1-.33589-.03138,7.57739,7.57739,0,0,0-.51682.70417q-.25889.39452-.5104.83982-.252.44577-.50386.91736-.252.47206-.48454.93673h-1.73132q.23253-.5039.50386-1.02164.27131-.51636.54915-1.00134.27824-.48313.55557-.9035.27688-.42084.51034-.71709a2.51093,2.51093,0,0,1-1.292-.957,2.80075,2.80075,0,0,1-.41345-1.56245,2.64348,2.64348,0,0,1,.29071-1.26622,2.45344,2.45344,0,0,1,.82691-.8989,4.03,4.03,0,0,1,1.29849-.53527,7.376,7.376,0,0,1,1.70553-.1809" transform="translate(0 0.03136)" fill="#050606"/>
    </g>
    <path d="M176.51789,55.68c-.83522,19.07062-16.26229,34.20421-35.715,35.63285V66.37443l6.1234-.012.11443-.00183c13.08753-.52144,23.33812-10.91321,23.33812-23.65742,0-12.74331-10.25059-23.13508-23.33719-23.65742l-6.23876-.00369V5.83825h35.75655Zm-35.715-30.77015,6.04958.00369a17.79221,17.79221,0,0,1-.00186,35.57934l-6.04772.012ZM114.74134,84.02475A37.65059,37.65059,0,0,1,99.05218,55.34217L99.01156,5.83825h35.75562V19.02177H104.70027v5.86958h10.04107ZM92.97125-.03136l.04613,55.43814.00183.11815a43.71182,43.71182,0,0,0,23.29013,36.433l4.46679,2.37829V63.44978h.00093V24.89413l13.99012.01107v72.388H137.785c24.12256,0,43.78477-18.19853,44.76582-41.43047l.04889-55.89407Z" transform="translate(0 0.03136)" fill="#b7905c"/>
    <g>
      <path d="M4.35422,190.08221q-.03878.87907-.09046,1.7895a17.19988,17.19988,0,0,1-.18735,1.75811,9.54775,9.54775,0,0,1-.39408,1.59475,4.29576,4.29576,0,0,1-.71062,1.31143,3.32887,3.32887,0,0,1-1.13055.8989,3.95679,3.95679,0,0,1-1.66027.36084L0,196.37449a3.40151,3.40151,0,0,0,.814-.18089,2.07694,2.07694,0,0,0,.60728-.3424,2.08357,2.08357,0,0,0,.45221-.52882,3.61218,3.61218,0,0,0,.33595-.74385A10.20427,10.20427,0,0,0,2.67455,192.06q.11626-1.51169.11629-3.37317H8.3854v8.9539H6.74451v-7.55849Z" transform="translate(0 0.03136)" fill="#050606"/>
      <path d="M14.81362,190.41852q-.29763.68524-.67834,1.66674-.38208.9815-.7946,2.13188h2.94586q-.41389-1.15038-.80105-2.14481-.38761-.99533-.67186-1.65382m2.64225,7.22254q-.18136-.5302-.37563-1.04655-.19518-.51636-.37563-1.05949h-3.782q-.18136.54266-.36915,1.06594-.18829.52329-.36915,1.0401H10.49077q.50392-1.43417.9552-2.6487.45267-1.21406.88507-2.29985.43189-1.08532.85828-2.06727.4264-.98289.87766-1.93808h1.55417q.45128.95659.87859,1.93808.42635.9815.85921,2.06727.43328,1.08534.89152,2.29985.45821,1.21546.96258,2.6487Z" transform="translate(0 0.03136)" fill="#050606"/>
      <path d="M23.46309,196.32308h.323c.12091,0,.25382-.0046.40055-.01291a4.38115,4.38115,0,0,0,.76875-.09045,2.04641,2.04641,0,0,0,.646-.24548,1.25179,1.25179,0,0,0,.43931-.43929,1.31537,1.31537,0,0,0,.16149-.68479,1.54127,1.54127,0,0,0-.168-.76231,1.20521,1.20521,0,0,0-.491-.4716,2.43453,2.43453,0,0,0-.7817-.24548,6.87958,6.87958,0,0,0-1.04008-.07107h-.82691v2.99755c.07751.00924.16149.0157.25193.02031.09044.00277.19566.00553.31657.00553m-.5685-6.25352v1.8864h.87859a8.80719,8.80719,0,0,1,1.73132.155,3.73706,3.73706,0,0,1,1.29207.49744,2.259,2.259,0,0,1,.80753.89152,2.93534,2.93534,0,0,1,.27779,1.33726,2.45409,2.45409,0,0,1-1.053,2.17711,5.31044,5.31044,0,0,1-3.004.71708q-.54266,0-1.22746-.05813a8.99515,8.99515,0,0,1-1.292-.20028v-8.78592h5.7367v1.38248Z" transform="translate(0 0.03136)" fill="#050606"/>
      <path d="M43.443,190.00432c-.41345,0-.75306.01384-1.02071.03875v3.05017h.78815a4.00329,4.00329,0,0,0,1.80979-.32947,1.27519,1.27519,0,0,0,.63218-1.24684,1.47336,1.47336,0,0,0-.168-.73646,1.211,1.211,0,0,0-.46421-.46607,2.21745,2.21745,0,0,0-.7051-.239,5.19821,5.19821,0,0,0-.87214-.07106m-.11626-1.40742a5.28374,5.28374,0,0,1,2.99109.71063,2.50255,2.50255,0,0,1,1.04008,2.22233,3.01977,3.01977,0,0,1-.27779,1.35019,2.33562,2.33562,0,0,1-.80753.91736,3.72894,3.72894,0,0,1-1.29111.52328,8.19148,8.19148,0,0,1-1.74521.168h-.814v3.1526h-1.628v-8.82469a8.16607,8.16607,0,0,1,1.25974-.17442q.69217-.0443,1.27269-.04523" transform="translate(0 0.03136)" fill="#050606"/>
      <path d="M52.546,190.41852q-.29763.68524-.67834,1.66674-.38208.9815-.7946,2.13188h2.94586q-.41389-1.15038-.80105-2.14481-.38761-.99533-.67186-1.65382m2.64225,7.22254q-.18136-.5302-.37563-1.04655-.19518-.51636-.37563-1.05949H50.655q-.18136.54266-.36915,1.06594-.18829.52329-.36915,1.0401H48.22315q.50392-1.43417.9552-2.6487.45267-1.21406.88507-2.29985.43189-1.08532.85828-2.06727.4264-.98289.87766-1.93808h1.55417q.45128.95659.87859,1.93808.42635.9815.85921,2.06727.43328,1.08534.89152,2.29985.45821,1.21546.96258,2.6487Z" transform="translate(0 0.03136)" fill="#050606"/>
      <polygon points="64.734 188.718 64.734 190.127 61.982 190.127 61.982 197.672 60.341 197.672 60.341 190.127 57.589 190.127 57.589 188.718 64.734 188.718" fill="#050606"/>
      <path d="M67.62859,193.15728a4.61417,4.61417,0,0,0,.18087,1.33728,2.913,2.913,0,0,0,.5233,1.02165,2.381,2.381,0,0,0,.83336.65247,2.56262,2.56262,0,0,0,1.11117.23258,2.53644,2.53644,0,0,0,1.09824-.23258,2.38917,2.38917,0,0,0,.83336-.65247,2.94428,2.94428,0,0,0,.5233-1.02165,5.03057,5.03057,0,0,0,0-2.67362,2.94421,2.94421,0,0,0-.5233-1.02164,2.389,2.389,0,0,0-.83336-.65249,2.53664,2.53664,0,0,0-1.09824-.23257,2.56282,2.56282,0,0,0-1.11117.23257,2.3464,2.3464,0,0,0-.83336.65895,2.99526,2.99526,0,0,0-.5233,1.02164,4.54935,4.54935,0,0,0-.18087,1.32988m6.99,0a5.56878,5.56878,0,0,1-.3424,2.02853,4.20413,4.20413,0,0,1-.9303,1.46647,3.83,3.83,0,0,1-1.376.88505,4.71285,4.71285,0,0,1-1.67964.29718,4.76679,4.76679,0,0,1-1.68615-.29718,3.80853,3.80853,0,0,1-1.38248-.88505,4.257,4.257,0,0,1-.93675-1.46647,5.46984,5.46984,0,0,1-.34884-2.02853,5.41273,5.41273,0,0,1,.34884-2.02112,4.241,4.241,0,0,1,.94968-1.46648,3.9068,3.9068,0,0,1,1.389-.89152,4.82284,4.82284,0,0,1,3.33349,0,3.78553,3.78553,0,0,1,1.376.89152,4.35083,4.35083,0,0,1,.93672,1.46648,5.41215,5.41215,0,0,1,.34887,2.02112" transform="translate(0 0.03136)" fill="#050606"/>
      <path d="M79.74971,190.00432c-.41345,0-.75306.01384-1.02071.03875v3.05017h.78815a4.00329,4.00329,0,0,0,1.80979-.32947,1.27519,1.27519,0,0,0,.63218-1.24684,1.47336,1.47336,0,0,0-.168-.73646,1.211,1.211,0,0,0-.46421-.46607,2.21745,2.21745,0,0,0-.7051-.239,5.19821,5.19821,0,0,0-.87214-.07106m-.11626-1.40742a5.28374,5.28374,0,0,1,2.99109.71063,2.50255,2.50255,0,0,1,1.04008,2.22233,3.01977,3.01977,0,0,1-.27779,1.35019,2.33562,2.33562,0,0,1-.80753.91736,3.72894,3.72894,0,0,1-1.29111.52328,8.19148,8.19148,0,0,1-1.74521.168h-.814v3.1526H77.101v-8.82469a8.16607,8.16607,0,0,1,1.25974-.17442q.69217-.0443,1.27269-.04523" transform="translate(0 0.03136)" fill="#050606"/>
      <path d="M85.94684,197.64106v-8.9539H87.5619v5.94343q.43882-.6977,1.00133-1.50523.562-.80845,1.16283-1.6086.60083-.80155,1.19516-1.544.59386-.74339,1.11117-1.28559h1.3308v8.9539H91.76105v-6.40855q-.54266.64509-1.14348,1.45355t-1.1822,1.66674q-.58144.85968-1.1241,1.7055t-.982,1.58276Z" transform="translate(0 0.03136)" fill="#050606"/>
      <path d="M100.24936,190.00432a5.596,5.596,0,0,0-.91089.07106,2.36567,2.36567,0,0,0-.73.239,1.261,1.261,0,0,0-.48451.45314,1.31226,1.31226,0,0,0-.17442.69679,1.365,1.365,0,0,0,.17442.72447,1.22244,1.22244,0,0,0,.50389.45221,2.52534,2.52534,0,0,0,.80108.23257,7.85872,7.85872,0,0,0,1.06594.06461h.71062v-2.89512c-.30178-.02491-.62018-.03875-.9561-.03875m.11629-1.40742c.35346,0,.75306.0157,1.20158.04523a8.80017,8.80017,0,0,1,1.26622.17442v8.82469h-1.628v-3.35933h-.9432c-.11164,0-.22793-.00276-.34884-.00738a2.46153,2.46153,0,0,1-.33592-.03138,7.57739,7.57739,0,0,0-.51682.70417q-.25889.39452-.51037.83982-.252.44577-.50389.91736-.252.47206-.48454.93673H95.83056q.23257-.5039.50389-1.02164.27131-.51636.54912-1.00134.27824-.48313.55557-.9035.27828-.42084.51037-.71709a2.51485,2.51485,0,0,1-1.292-.957,2.79342,2.79342,0,0,1-.41345-1.56245,2.64348,2.64348,0,0,1,.29071-1.26622,2.45368,2.45368,0,0,1,.82691-.8989,4.02155,4.02155,0,0,1,1.29849-.53527,7.3872,7.3872,0,0,1,1.70553-.1809" transform="translate(0 0.03136)" fill="#050606"/>
      <path d="M113.90616,197.83486a4.98054,4.98054,0,0,1-1.80889-.31009,3.57225,3.57225,0,0,1-1.35665-.91089,4.067,4.067,0,0,1-.85273-1.46647,6.10945,6.10945,0,0,1-.29719-1.98976,5.36778,5.36778,0,0,1,.3424-1.98976,4.28811,4.28811,0,0,1,.93675-1.46647,3.93409,3.93409,0,0,1,1.39541-.91089,4.71516,4.71516,0,0,1,1.71842-.31009,5.60139,5.60139,0,0,1,1.00781.084,7.14881,7.14881,0,0,1,.78815.18735,3.192,3.192,0,0,1,.55557.21965c.14581.07752.24917.13381.31009.168l-.47806,1.33174a3.75974,3.75974,0,0,0-.885-.36917,4.277,4.277,0,0,0-1.24684-.17442,2.9239,2.9239,0,0,0-1.08532.20026,2.35575,2.35575,0,0,0-.87214.6008,2.79661,2.79661,0,0,0-.57495,1.00781,4.38106,4.38106,0,0,0-.20673,1.40833,4.94967,4.94967,0,0,0,.16149,1.305,2.8644,2.8644,0,0,0,.49744,1.02719,2.261,2.261,0,0,0,.85276.67186,2.92988,2.92988,0,0,0,1.24036.239,4.70788,4.70788,0,0,0,1.40833-.17442,5.6089,5.6089,0,0,0,.83984-.32948l.43928,1.33081a2.19229,2.19229,0,0,1-.4199.20673,5.97055,5.97055,0,0,1-.62666.20028,6.26649,6.26649,0,0,1-.814.156,7.79885,7.79885,0,0,1-.969.05722" transform="translate(0 0.03136)" fill="#050606"/>
      <path d="M123.52186,194.96614a9.58316,9.58316,0,0,1-.66634,1.25975,3.93929,3.93929,0,0,1-.7494.88505,2.70723,2.70723,0,0,1-.90535.51775,3.489,3.489,0,0,1-1.11762.167,4.18505,4.18505,0,0,1-.78261-.07752,2.98721,2.98721,0,0,1-.66541-.19381l.29716-1.34373a2.81249,2.81249,0,0,0,.51961.16151,2.66665,2.66665,0,0,0,.55833.05906,1.72968,1.72968,0,0,0,.994-.27134,2.53411,2.53411,0,0,0,.73278-.8915q-.5454-.87907-1.0447-1.771-.49974-.89151-.92751-1.7378-.42775-.84584-.78539-1.62153-.35715-.77385-.64232-1.42125h1.82272q.20625.5302.47251,1.13791.26577.60635.57036,1.25237.30451.64648.64139,1.31881.33641.6714.67372,1.34373.46653-1.15038.89428-2.4549.42914-1.30682.80477-2.59793h1.75811q-.31148.95794-.623,1.8024-.31144.84721-.61739,1.61506-.30456.76969-.60911,1.47294-.30456.70463-.60356,1.38894" transform="translate(0 0.03136)" fill="#050606"/>
      <path d="M130.70275,190.08259q-.03874.77523-.09044,1.58922a15.2441,15.2441,0,0,1-.18735,1.6086,11.0528,11.0528,0,0,1-.38115,1.55045,6.2484,6.2484,0,0,1-.67186,1.42771h3.6565v-6.176Zm-4.2379,6.176H127.576a6.698,6.698,0,0,0,.898-1.68612,10.139,10.139,0,0,0,.46516-1.8347,15.30871,15.30871,0,0,0,.17442-1.96392q.02628-1.01472.02583-2.08666h5.49122v7.5714h1.3308v3.7728H134.398v-2.3903H128.0282v2.3903h-1.56335Z" transform="translate(0 0.03136)" fill="#050606"/>
      <polygon points="138.222 197.672 138.222 188.719 143.972 188.719 143.972 190.101 139.85 190.101 139.85 192.31 143.52 192.31 143.52 193.667 139.85 193.667 139.85 196.29 144.282 196.29 144.282 197.672 138.222 197.672" fill="#050606"/>
      <path d="M148.92094,196.32308h.323c.12091,0,.25382-.0046.40055-.01291a4.39136,4.39136,0,0,0,.76875-.09045,2.06064,2.06064,0,0,0,.647-.24548,1.26458,1.26458,0,0,0,.43838-.43929,1.32414,1.32414,0,0,0,.16149-.68479,1.54127,1.54127,0,0,0-.168-.76231,1.20521,1.20521,0,0,0-.491-.4716,2.43453,2.43453,0,0,0-.7817-.24548,6.88838,6.88838,0,0,0-1.04008-.07107h-.82691v2.99755c.07751.00924.16149.0157.25193.02031.09044.00277.19566.00553.31657.00553m-.5685-6.25352v1.8864h.87859a8.80719,8.80719,0,0,1,1.73132.155,3.74184,3.74184,0,0,1,1.293.49744,2.27954,2.27954,0,0,1,.80753.89152,2.94734,2.94734,0,0,1,.27688,1.33726,2.4576,2.4576,0,0,1-1.05211,2.17711,5.31792,5.31792,0,0,1-3.00492.71708q-.54266,0-1.22746-.05813a8.99515,8.99515,0,0,1-1.292-.20028v-8.78592h5.7367v1.38248Z" transform="translate(0 0.03136)" fill="#050606"/>
      <polygon points="161.376 188.718 163.005 188.718 163.005 197.672 161.376 197.672 161.376 193.706 157.487 193.706 157.487 197.672 155.859 197.672 155.859 188.718 157.487 188.718 157.487 192.297 161.376 192.297 161.376 188.718" fill="#050606"/>
      <path d="M173.85748,188.68735h1.628v8.9539h-1.628Zm-5.42661,4.58585h-.32947a2.29556,2.29556,0,0,0-.35532.02677v3.0234a2.75437,2.75437,0,0,0,.39315.02491h.575a4.95151,4.95151,0,0,0,.84721-.07013,2.107,2.107,0,0,0,.70417-.2455,1.29483,1.29483,0,0,0,.65894-1.20807,1.45961,1.45961,0,0,0-.17442-.74939,1.302,1.302,0,0,0-.49837-.478,2.31937,2.31937,0,0,0-.78077-.25287,7.00274,7.00274,0,0,0-1.04008-.07107m4.18625,1.55138a2.75506,2.75506,0,0,1-.27781,1.26622,2.486,2.486,0,0,1-.80105.91,3.78943,3.78943,0,0,1-1.26622.55652,6.87263,6.87263,0,0,1-1.67319.18734q-.54266,0-1.20161-.0646a10.15806,10.15806,0,0,1-1.27914-.20673v-8.78594h1.628v3.21721a2.87675,2.87675,0,0,1,.38763-.02584h.37467a5.32768,5.32768,0,0,1,3.07508.73,2.53037,2.53037,0,0,1,1.03366,2.21585" transform="translate(0 0.03136)" fill="#050606"/>
      <path d="M183.91443,197.64106a17.791,17.791,0,0,0-.94506-1.55138q-.57033-.84721-1.18961-1.63535c-.17256.20673-.35808.45129-.56019.73646-.20118.28426-.40146.57589-.60356.87214q-.30181.44577-.55929.862-.2561.41391-.4116.71615h-1.86057q.5939-1.07423,1.37327-2.20571.778-1.131,1.69074-2.37l-2.93479-4.3782h1.93808l1.96022,2.93941,1.9676-2.93941h1.86057l-2.89973,4.33206q1.00361,1.311,1.77749,2.48351.77523,1.16977,1.30311,2.13833Z" transform="translate(0 0.03136)" fill="#050606"/>
      <path d="M198.39315,193.15728a6.053,6.053,0,0,1-.31657,2.05529,3.99093,3.99093,0,0,1-.885,1.46,3.60167,3.60167,0,0,1-1.37606.87121,5.18767,5.18767,0,0,1-1.77656.29071,6.79,6.79,0,0,1-1.63444-.18089,4.1835,4.1835,0,0,1-1.15638-.43929l.43928-1.33081a6.36456,6.36456,0,0,0,.84628.3304,4.64447,4.64447,0,0,0,1.40188.17349,2.55392,2.55392,0,0,0,1.90023-.69124,3.14271,3.14271,0,0,0,.826-1.91777h-3.8503V192.3959H196.623a2.97669,2.97669,0,0,0-.80753-1.84117,2.56746,2.56746,0,0,0-1.87992-.65249,4.43057,4.43057,0,0,0-1.3631.18,6.02448,6.02448,0,0,0-.87214.34977l-.45221-1.293a5.27344,5.27344,0,0,1,1.16375-.45869,6.08255,6.08255,0,0,1,1.64-.19933,4.91463,4.91463,0,0,1,1.7378.29716,3.75234,3.75234,0,0,1,1.376.88505,4.02243,4.02243,0,0,1,.90444,1.46648,5.84649,5.84649,0,0,1,.323,2.02759" transform="translate(0 0.03136)" fill="#050606"/>
      <path d="M206.49372,197.64106q-.33641-.51634-.77525-1.08532t-.92379-1.09824q-.48453-.5302-1.00136-1.00779a9.44861,9.44861,0,0,0-1.02071-.82691v4.01826h-1.628v-8.9539h1.628v3.69526q.42635-.42637.89152-.91089t.92382-.982q.4596-.497.87211-.96258.41393-.46514.7494-.83984h1.951q-.4264.49006-.90444,1.02072-.479.5302-.982,1.06594-.50392.53575-1.01426,1.06594-.51085.5302-1.00136,1.00781a11.84428,11.84428,0,0,1,1.10472.96258q.562.54957,1.10469,1.17575.54266.62711,1.04011,1.305.49695.67833.91089,1.35019Z" transform="translate(0 0.03136)" fill="#050606"/>
      <path d="M214.104,197.83486a4.98054,4.98054,0,0,1-1.80889-.31009,3.58642,3.58642,0,0,1-1.35665-.91089,4.08042,4.08042,0,0,1-.85273-1.46647,6.13374,6.13374,0,0,1-.29719-1.98976,5.38677,5.38677,0,0,1,.34239-1.98976,4.30153,4.30153,0,0,1,.93675-1.46647,3.946,3.946,0,0,1,1.39634-.91089,4.71377,4.71377,0,0,1,1.7175-.31009,5.61178,5.61178,0,0,1,1.00871.084,7.17873,7.17873,0,0,1,.78725.18735,3.20469,3.20469,0,0,1,.5565.21965c.14581.07752.24917.13381.31009.168l-.479,1.33174a3.74264,3.74264,0,0,0-.885-.36917,4.27077,4.27077,0,0,0-1.24591-.17442,2.92038,2.92038,0,0,0-1.08532.20026,2.34824,2.34824,0,0,0-.87214.6008,2.79806,2.79806,0,0,0-.57588,1.00781,4.3821,4.3821,0,0,0-.20583,1.40833,4.91122,4.91122,0,0,0,.16152,1.305,2.8644,2.8644,0,0,0,.49744,1.02719,2.254,2.254,0,0,0,.85273.67186,2.92862,2.92862,0,0,0,1.23946.239,4.71879,4.71879,0,0,0,1.40926-.17442,5.64956,5.64956,0,0,0,.83981-.32948l.43838,1.33081a2.16493,2.16493,0,0,1-.4199.20673,6.01955,6.01955,0,0,1-.62573.20028,6.26648,6.26648,0,0,1-.814.156,7.80327,7.80327,0,0,1-.97.05722" transform="translate(0 0.03136)" fill="#050606"/>
      <polygon points="226.417 188.718 226.417 197.672 224.789 197.672 224.789 190.114 220.965 190.114 220.965 197.672 219.337 197.672 219.337 188.718 226.417 188.718" fill="#050606"/>
      <polygon points="229.531 197.672 229.531 188.719 235.281 188.719 235.281 190.101 231.159 190.101 231.159 192.31 234.828 192.31 234.828 193.667 231.159 193.667 231.159 196.29 235.59 196.29 235.59 197.672 229.531 197.672" fill="#050606"/>
      <path d="M240.72007,190.00432c-.41345,0-.754.01384-1.02074.03875v3.05017h.78815a4.00173,4.00173,0,0,0,1.80889-.32947,1.27578,1.27578,0,0,0,.63308-1.24684,1.483,1.483,0,0,0-.168-.73646,1.207,1.207,0,0,0-.46511-.46607,2.20967,2.20967,0,0,0-.70512-.239,5.18657,5.18657,0,0,0-.87118-.07106m-.11626-1.40742a5.28771,5.28771,0,0,1,2.99106.71063,2.50256,2.50256,0,0,1,1.04011,2.22233,3.00745,3.00745,0,0,1-.27872,1.35019,2.32861,2.32861,0,0,1-.80753.91736,3.7219,3.7219,0,0,1-1.29111.52328,8.17961,8.17961,0,0,1-1.74524.168h-.81305v3.1526h-1.628v-8.82469a8.13349,8.13349,0,0,1,1.25974-.17442q.69082-.0443,1.27269-.04523" transform="translate(0 0.03136)" fill="#050606"/>
      <polygon points="253.331 188.718 253.331 190.127 250.578 190.127 250.578 197.672 248.938 197.672 248.938 190.127 246.186 190.127 246.186 188.718 253.331 188.718" fill="#050606"/>
      <path d="M255.53952,197.64106v-8.9539h1.61506v5.94343q.43877-.6977,1.0013-1.50523.562-.80845,1.16285-1.6086.60083-.80155,1.19513-1.544.5939-.74339,1.1112-1.28559h1.33077v8.9539h-1.60211v-6.40855q-.5427.64509-1.14348,1.45355t-1.18223,1.66674q-.5814.85968-1.125,1.7055-.54126.84584-.981,1.58276Z" transform="translate(0 0.03136)" fill="#050606"/>
      <path d="M267.85256,192.29207a4.88056,4.88056,0,0,0,.74934-.05813,2.28264,2.28264,0,0,0,.67189-.20673,1.29126,1.29126,0,0,0,.479-.40054,1.07986,1.07986,0,0,0,.18-.63956.93157.93157,0,0,0-.41993-.80108,1.96952,1.96952,0,0,0-1.15638-.29716,4.45227,4.45227,0,0,0-1.25884.16151,4.069,4.069,0,0,0-.92379.38115l-.52972-1.305a4.16026,4.16026,0,0,1,1.12962-.44576,6.33776,6.33776,0,0,1,1.59659-.18735,5.32459,5.32459,0,0,1,1.29111.1486,2.90859,2.90859,0,0,1,1.02074.45867,2.23535,2.23535,0,0,1,.67183.77523,2.28493,2.28493,0,0,1,.24644,1.08533,1.9882,1.9882,0,0,1-.32395,1.07885,2.09992,2.09992,0,0,1-.98192.79462,3.665,3.665,0,0,1,.65894.32209,2.22381,2.22381,0,0,1,.9118,1.13146,2.416,2.416,0,0,1,.13474.83244,2.71578,2.71578,0,0,1-.25838,1.23483,2.22148,2.22148,0,0,1-.7365.83892,3.30514,3.30514,0,0,1-1.16927.48544,7.07263,7.07263,0,0,1-1.54307.155,6.40138,6.40138,0,0,1-.91827-.06461,7.6031,7.6031,0,0,1-.82691-.168,6.27714,6.27714,0,0,1-.69775-.22612c-.20577-.08213-.37836-.15689-.51586-.2261l.47711-1.305c.1117.05168.2501.10983.41345.17442s.34884.12736.55557.18735a6.45251,6.45251,0,0,0,.67189.155,4.15462,4.15462,0,0,0,.73644.06368,3.26617,3.26617,0,0,0,1.55693-.30271,1.09969,1.09969,0,0,0,.54915-1.053,1.29285,1.29285,0,0,0-.18735-.72354,1.23164,1.23164,0,0,0-.51682-.43931,2.60642,2.60642,0,0,0-.78173-.21318,7.6171,7.6171,0,0,0-.969-.05815h-1.00778v-1.34374Z" transform="translate(0 0.03136)" fill="#050606"/>
      <path d="M31.59954,193.1499a4.61417,4.61417,0,0,0,.18087,1.33728,2.913,2.913,0,0,0,.5233,1.02165,2.381,2.381,0,0,0,.83336.65247,2.56262,2.56262,0,0,0,1.11117.23258,2.53644,2.53644,0,0,0,1.09824-.23258,2.38917,2.38917,0,0,0,.83336-.65247,2.94428,2.94428,0,0,0,.5233-1.02165,5.03057,5.03057,0,0,0,0-2.67362,2.94421,2.94421,0,0,0-.5233-1.02164,2.389,2.389,0,0,0-.83336-.65249,2.53664,2.53664,0,0,0-1.09824-.23257,2.56282,2.56282,0,0,0-1.11117.23257,2.3464,2.3464,0,0,0-.83336.65895,2.99526,2.99526,0,0,0-.5233,1.02164,4.54935,4.54935,0,0,0-.18087,1.32988m6.99,0a5.56878,5.56878,0,0,1-.3424,2.02853,4.20413,4.20413,0,0,1-.9303,1.46647,3.83,3.83,0,0,1-1.376.88505,4.71285,4.71285,0,0,1-1.67964.29718A4.76679,4.76679,0,0,1,32.575,197.53a3.80854,3.80854,0,0,1-1.38248-.88505,4.257,4.257,0,0,1-.93675-1.46647,5.46984,5.46984,0,0,1-.34884-2.02853,5.41273,5.41273,0,0,1,.34884-2.02112,4.241,4.241,0,0,1,.94968-1.46648,3.9068,3.9068,0,0,1,1.389-.89152,4.82284,4.82284,0,0,1,3.33349,0,3.78553,3.78553,0,0,1,1.376.89152,4.35083,4.35083,0,0,1,.93672,1.46648,5.41215,5.41215,0,0,1,.34887,2.02112" transform="translate(0 0.03136)" fill="#050606"/>
    </g>
  </g>
</svg>
