<svg xmlns="http://www.w3.org/2000/svg" viewBox="0 0 210 63.33889">
  <title>peritus_logo_horizontal</title>
  <g>
    <path d="M75.80279,16.25639v7.22178h4.45966a5.21271,5.21271,0,0,0,1.39244-.18368,3.17523,3.17523,0,0,0,1.18209-.60337,2.92737,2.92737,0,0,0,.81665-1.11,4.215,4.215,0,0,0,.30318-1.70052,3.467,3.467,0,0,0-.9994-2.75322,4.10083,4.10083,0,0,0-2.78579-.871Zm11.60644,3.54027a6.3959,6.3959,0,0,1-.33283,1.981,5.409,5.409,0,0,1-1.0754,1.88221,5.67594,5.67594,0,0,1-1.96812,1.41909,7.20944,7.20944,0,0,1-3.01393.5619H75.80279v5.56371h2.63475v2.16466h-7.9348V31.20455h1.96818V16.25639H70.50273V14.09173H80.68611a7.54062,7.54062,0,0,1,4.93666,1.47537,5.17409,5.17409,0,0,1,1.78645,4.22956" transform="translate(0.00473 0.02594)" fill="#b7905c"/>
    <polygon points="89.535 33.395 89.535 31.231 91.594 31.231 91.594 16.31 89.596 16.31 89.596 14.146 105.283 14.146 105.283 19.176 102.86 19.176 102.86 16.31 94.926 16.31 94.926 22.351 102.285 22.211 102.285 24.431 94.926 24.318 94.926 31.231 103.254 31.231 103.254 28.253 105.736 28.253 105.736 33.395 89.535 33.395" fill="#b7905c"/>
    <path d="M123.62845,19.55738a3.55671,3.55671,0,0,0-.30318-1.53757,2.85922,2.85922,0,0,0-.80182-1.03,3.07324,3.07324,0,0,0-1.18112-.56389,5.7964,5.7964,0,0,0-1.4092-.16985h-4.6107V22.9999h4.6107a6.01561,6.01561,0,0,0,1.25713-.14023,3.30449,3.30449,0,0,0,1.19692-.52241,2.88368,2.88368,0,0,0,.89271-1.04382,3.73807,3.73807,0,0,0,.34856-1.73607m-8.306,5.54989v6.098h2.33151v2.16368h-7.601V31.20524h1.93852V16.25608h-1.93852V14.09242h10.42531a7.57744,7.57744,0,0,1,4.906,1.40723,4.92579,4.92579,0,0,1,1.7272,4.05279,6.17264,6.17264,0,0,1-.18269,1.43587,5.09044,5.09044,0,0,1-.62016,1.47734,4.95411,4.95411,0,0,1-1.1663,1.29464,5.18589,5.18589,0,0,1-1.78645.88681l3.2707,6.64209,2.24068.27749v1.662a6.82462,6.82462,0,0,1-1.40818.33673,9.85229,9.85229,0,0,1-1.31734.11258,2.399,2.399,0,0,1-1.60473-.44931,4.18308,4.18308,0,0,1-.93919-1.29268l-3.24-6.82875Z" transform="translate(0.00473 0.02594)" fill="#b7905c"/>
    <polygon points="132.013 33.395 132.013 31.231 133.981 31.231 133.981 16.282 132.013 16.282 132.013 14.118 139.312 14.118 139.312 16.282 137.313 16.282 137.313 31.231 139.312 31.231 139.312 33.395 132.013 33.395" fill="#b7905c"/>
    <polygon points="147.73 33.395 147.73 31.231 150.214 31.231 150.214 16.282 145.348 16.282 145.348 19.373 142.926 19.373 142.926 14.118 160.741 14.118 160.741 19.373 158.319 19.373 158.319 16.282 153.514 16.282 153.514 31.231 155.998 31.231 155.998 33.395 147.73 33.395" fill="#b7905c"/>
    <path d="M181.90474,26.36a7.019,7.019,0,0,1-2.01061,5.27734c-1.34007,1.30353-3.884,1.95629-6.6846,1.95629a12.44281,12.44281,0,0,1-3.73384-.49278,6.62062,6.62062,0,0,1-2.5547-1.421,5.53492,5.53492,0,0,1-1.4655-2.2802A9.23988,9.23988,0,0,1,164.9874,26.36V16.25569H163.2V14.092h7.11713v2.16366h-2.059V26.33438a4.83462,4.83462,0,0,0,1.28672,3.68841,5.21666,5.21666,0,0,0,3.71015,1.2107,6.62064,6.62064,0,0,0,4.13773-1.18305,4.79,4.79,0,0,0,1.30258-3.71606V16.25569h-2.02942V14.092h7.08651v2.16366h-1.84763Z" transform="translate(0.00473 0.02594)" fill="#b7905c"/>
    <path d="M189.33571,28.11418l.03056,2.3039a9.55243,9.55243,0,0,0,2.27136.66066,13.78527,13.78527,0,0,0,2.14984.18269,10.38913,10.38913,0,0,0,2.533-.28145,4.83572,4.83572,0,0,0,1.45362-.716,2.90216,2.90216,0,0,0,.86306-1.01221,2.58264,2.58264,0,0,0,.28739-1.16529,2.53589,2.53589,0,0,0-.34856-1.40524,2.629,2.629,0,0,0-.96878-.871,7.23971,7.23971,0,0,0-1.45362-.57671c-.556-.159-1.63933-.32292-2.30589-.49179a19.81217,19.81217,0,0,1-2.60413-.70213,9.40483,9.40483,0,0,1-2.12019-1.026,4.69384,4.69384,0,0,1-1.43886-1.47437,3.93173,3.93173,0,0,1-.52926-2.07973,5.07985,5.07985,0,0,1,2.16564-4.18711,7.241,7.241,0,0,1,2.30089-1.06751,10.71088,10.71088,0,0,1,2.86186-.36538c.44343,0,1.40233.01876,1.92768.05628q.78657.0563,1.58894.18269a11.79687,11.79687,0,0,1,1.59087.3644,9.01267,9.01267,0,0,1,1.45266.57671l.03062,4.01824h-2.453l-.02959-2.33253a6.62956,6.62956,0,0,0-1.742-.393c-.69616-.07506-1.79037-.11258-2.33549-.11258a6.018,6.018,0,0,0-1.49907.18269,3.869,3.869,0,0,0-1.24128.54807,2.81351,2.81351,0,0,0-.84829.91248,2.448,2.448,0,0,0-.318,1.25119,1.8541,1.8541,0,0,0,.37822,1.16627,3.39668,3.39668,0,0,0,1.01423.85717,7.63714,7.63714,0,0,0,1.46941.632q.8325.26662,1.741.46414c.84829.18664,2.15479.40686,2.97246.65967a8.69713,8.69713,0,0,1,2.19523,1.01221,4.99521,4.99521,0,0,1,1.55934,1.60078,4.65968,4.65968,0,0,1,.5905,2.45894,5.2056,5.2056,0,0,1-.5905,2.55769,5.019,5.019,0,0,1-1.65018,1.76965,7.4115,7.4115,0,0,1-2.54385,1.026,20.32143,20.32143,0,0,1-3.74372.32293,21.79079,21.79079,0,0,1-3.60443-.3091,12.4306,12.4306,0,0,1-3.45242-1.09615q0-1.01172-.01483-2.03727-.01483-1.02505-.01579-2.06492Z" transform="translate(0.00473 0.02594)" fill="#b7905c"/>
    <polygon points="73.886 41.205 74.721 41.205 74.721 45.794 73.886 45.794 73.886 43.761 71.892 43.761 71.892 45.794 71.058 45.794 71.058 41.205 71.892 41.205 71.892 43.039 73.886 43.039 73.886 41.205" fill="#ededee"/>
    <path d="M78.01152,42.066q-.15406.35106-.34862.85421-.194.50363-.40685,1.09319H78.766q-.21174-.58955-.41077-1.1001c-.13236-.33872-.24688-.62215-.34368-.8473m1.35393,3.70223c-.06124-.1817-.12645-.35946-.19257-.53623-.06714-.17675-.13037-.35748-.19257-.54313H77.04081c-.06124.18564-.12344.36735-.18866.5461-.06317.17974-.12736.3565-.1886.53326h-.86806q.25776-.7347.48984-1.35785.23109-.62214.45326-1.17811.22069-.557.43946-1.06061.21925-.50214.45031-.99245h.79694q.23109.4903.45031.99245.21771.50366.44042,1.06061.22223.55548.45724,1.17811.23407.62363.4928,1.35785Z" transform="translate(0.00473 0.02594)" fill="#ededee"/>
    <path d="M83.58564,44.39689a4.98245,4.98245,0,0,1-.34169.64585,2.03693,2.03693,0,0,1-.38418.45327,1.38087,1.38087,0,0,1-.46411.26564,1.785,1.785,0,0,1-.57278.08592,2.11935,2.11935,0,0,1-.40094-.03951,1.58817,1.58817,0,0,1-.34169-.09974l.15207-.6883a1.55384,1.55384,0,0,0,.26665.083,1.44471,1.44471,0,0,0,.28636.02962.87483.87483,0,0,0,.50859-.13925,1.29945,1.29945,0,0,0,.37629-.45623q-.27856-.4518-.53529-.90754-.25622-.45773-.475-.89174c-.14719-.28934-.28045-.56585-.40293-.83051-.12145-.26564-.23205-.50758-.32885-.72879h.93418c.07016.1817.15111.37525.242.58264s.18757.42168.29227.64189c.10367.2212.21331.44735.32885.67645.11458.22912.2291.45921.34465.68831q.23995-.58808.45923-1.25811.21916-.66807.41179-1.33118h.90061q-.15849.4903-.319.92431c-.10566.28934-.21132.56487-.31505.82756-.10566.26267-.20933.5145-.314.75446-.10367.241-.20638.479-.30806.712" transform="translate(0.00473 0.02594)" fill="#ededee"/>
    <path d="M86.56455,42.51635a1.02225,1.02225,0,0,0,.238.77126,1.08886,1.08886,0,0,0,.76234.2222,3.45864,3.45864,0,0,0,.42662-.02667c.14417-.01777.26665-.03555.36737-.05233V41.17926h.83449v4.589h-.83449v-1.6235c-.11452.02272-.25182.04148-.41083.05728-.158.01581-.31993.02272-.48285.02272a2.84432,2.84432,0,0,1-.792-.09579,1.2542,1.2542,0,0,1-.53626-.3012,1.23238,1.23238,0,0,1-.30709-.52339,2.5763,2.5763,0,0,1-.09975-.76237V41.17926h.83449Z" transform="translate(0.00473 0.02594)" fill="#ededee"/>
    <polygon points="93.622 41.205 94.457 41.205 94.457 45.794 93.622 45.794 93.622 43.761 91.629 43.761 91.629 45.794 90.794 45.794 90.794 41.205 91.629 41.205 91.629 43.039 93.622 43.039 93.622 41.205" fill="#ededee"/>
    <path d="M96.73,43.47011a2.32478,2.32478,0,0,0,.09379.68534,1.48107,1.48107,0,0,0,.26768.5234,1.21733,1.21733,0,0,0,.42758.33378,1.28927,1.28927,0,0,0,.5688.12047,1.27539,1.27539,0,0,0,.5629-.12047,1.20876,1.20876,0,0,0,.42758-.33378,1.51691,1.51691,0,0,0,.26864-.5234,2.60418,2.60418,0,0,0,0-1.37067,1.51691,1.51691,0,0,0-.26864-.5234,1.20876,1.20876,0,0,0-.42758-.33378,1.27539,1.27539,0,0,0-.5629-.12047,1.28927,1.28927,0,0,0-.5688.12047,1.203,1.203,0,0,0-.42758.33675,1.52927,1.52927,0,0,0-.26768.52438,2.28388,2.28388,0,0,0-.09379.68138m3.58376,0A2.865,2.865,0,0,1,100.1379,44.51a2.155,2.155,0,0,1-.47695.75151,1.94952,1.94952,0,0,1-.70508.45327,2.50716,2.50716,0,0,1-1.72522,0,1.93974,1.93974,0,0,1-.70906-.45327,2.20413,2.20413,0,0,1-.48-.75151,3.106,3.106,0,0,1,0-2.07676,2.18338,2.18338,0,0,1,.48689-.75151,1.99125,1.99125,0,0,1,.712-.45624,2.46019,2.46019,0,0,1,1.70846,0,1.92244,1.92244,0,0,1,.70508.45624,2.21249,2.21249,0,0,1,.48.75151,2.77837,2.77837,0,0,1,.17974,1.03689" transform="translate(0.00473 0.02594)" fill="#ededee"/>
    <rect x="101.33111" y="43.13905" width="1.78151" height="0.73472" fill="#ededee"/>
    <path d="M104.30727,45.76827v-4.589h.8275v3.04651q.22521-.35846.51353-.77224.28886-.41327.59647-.82458c.20541-.27355.40884-.53821.61226-.791.20342-.2538.392-.474.56983-.65867h.68236v4.589h-.82165v-3.2845q-.27846.33032-.58556.74459-.30812.41327-.60635.85421-.29926.44141-.57574.87493-.28.434-.50365.81076Z" transform="translate(0.00473 0.02594)" fill="#ededee"/>
    <path d="M111.74451,45.86751a2.552,2.552,0,0,1-.92635-.159,1.83555,1.83555,0,0,1-.69616-.46709,2.11575,2.11575,0,0,1-.43753-.75151,3.158,3.158,0,0,1-.15207-1.02012,2.7751,2.7751,0,0,1,.17479-1.02012,2.24883,2.24883,0,0,1,.48092-.75151,2.01577,2.01577,0,0,1,.715-.4661,2.40937,2.40937,0,0,1,.8809-.159,2.86459,2.86459,0,0,1,.51745.04246,3.9066,3.9066,0,0,1,.40389.09579,1.70369,1.70369,0,0,1,.28443.11258c.075.03951.12838.06913.159.08592l-.245.68237a2.0051,2.0051,0,0,0-.45326-.18861,2.20761,2.20761,0,0,0-.63993-.08887,1.5,1.5,0,0,0-.556.10269,1.19687,1.19687,0,0,0-.44735.30812,1.41907,1.41907,0,0,0-.29426.51647,2.24723,2.24723,0,0,0-.10566.72089,2.58594,2.58594,0,0,0,.08191.66955,1.49359,1.49359,0,0,0,.25484.52634,1.16651,1.16651,0,0,0,.43747.34465,1.5001,1.5001,0,0,0,.63595.12246,2.3938,2.3938,0,0,0,.7219-.08987,2.79621,2.79621,0,0,0,.43054-.16886l.22518.68237a1.09354,1.09354,0,0,1-.2153.10566c-.09083.03556-.19752.06913-.321.1037a3.28647,3.28647,0,0,1-.4177.079,3.91724,3.91724,0,0,1-.49672.02962" transform="translate(0.00473 0.02594)" fill="#ededee"/>
    <path d="M116.34762,45.86751a2.561,2.561,0,0,1-.92731-.159,1.83945,1.83945,0,0,1-.6952-.46709,2.11575,2.11575,0,0,1-.43753-.75151,3.13194,3.13194,0,0,1-.15207-1.02012,2.7751,2.7751,0,0,1,.17479-1.02012,2.24883,2.24883,0,0,1,.48092-.75151,2.01577,2.01577,0,0,1,.715-.4661,2.40937,2.40937,0,0,1,.8809-.159,2.846,2.846,0,0,1,.51649.04246,3.80864,3.80864,0,0,1,.40486.09579,1.70369,1.70369,0,0,1,.28443.11258c.075.03951.12838.06913.159.08592l-.245.68237a2.0051,2.0051,0,0,0-.45326-.18861,2.20761,2.20761,0,0,0-.63993-.08887,1.5,1.5,0,0,0-.556.10269,1.19687,1.19687,0,0,0-.44735.30812,1.41907,1.41907,0,0,0-.29426.51647,2.24723,2.24723,0,0,0-.10566.72089,2.58594,2.58594,0,0,0,.08191.66955,1.49359,1.49359,0,0,0,.25484.52634,1.16651,1.16651,0,0,0,.43747.34465,1.5001,1.5001,0,0,0,.63595.12246,2.3938,2.3938,0,0,0,.7219-.08987,2.79621,2.79621,0,0,0,.43054-.16886l.22518.68237a1.09354,1.09354,0,0,1-.2153.10566c-.09083.03556-.19752.06913-.321.1037a3.28647,3.28647,0,0,1-.4177.079,3.91724,3.91724,0,0,1-.49672.02962" transform="translate(0.00473 0.02594)" fill="#ededee"/>
    <path d="M120.88407,41.89332c-.01386.3012-.02869.60635-.04647.91841a8.90075,8.90075,0,0,1-.09674.90063,4.82659,4.82659,0,0,1-.2015.81767,2.24532,2.24532,0,0,1-.36435.6725,1.68593,1.68593,0,0,1-.57971.4592,2.00967,2.00967,0,0,1-.85022.18566l-.09282-.72781a1.7567,1.7567,0,0,0,.41673-.09284,1.08164,1.08164,0,0,0,.31107-.17577,1.042,1.042,0,0,0,.23205-.27158,1.86861,1.86861,0,0,0,.1728-.38117,5.20864,5.20864,0,0,0,.238-1.2917q.05922-.77321.05925-1.72817h2.86873v4.59h-.84136V41.89332Z" transform="translate(0.00473 0.02594)" fill="#ededee"/>
    <polygon points="124.551 45.794 124.551 41.205 127.498 41.205 127.498 41.913 125.386 41.913 125.386 43.046 127.267 43.046 127.267 43.741 125.386 43.741 125.386 45.085 127.658 45.085 127.658 45.794 124.551 45.794" fill="#ededee"/>
    <path d="M130.63256,41.89342c-.01284.26466-.02863.53722-.04641.81471a7.83191,7.83191,0,0,1-.09577.82459,5.65856,5.65856,0,0,1-.19553.795,3.178,3.178,0,0,1-.34465.73175h1.87433v-3.166Zm-2.17251,3.166h.56977a3.412,3.412,0,0,0,.46019-.86408,5.1843,5.1843,0,0,0,.238-.94012,7.72,7.72,0,0,0,.08987-1.00727c.00886-.34564.0138-.70312.0138-1.0695h2.81442v3.881h.68242V46.994h-.80188V45.76847h-3.26479V46.994h-.80182Z" transform="translate(0.00473 0.02594)" fill="#ededee"/>
    <path d="M135.06323,43.47011a2.32478,2.32478,0,0,0,.09379.68534,1.48108,1.48108,0,0,0,.26768.5234,1.20876,1.20876,0,0,0,.42758.33378,1.38908,1.38908,0,0,0,1.1317,0,1.20876,1.20876,0,0,0,.42758-.33378,1.498,1.498,0,0,0,.26762-.5234,2.57645,2.57645,0,0,0,0-1.37067,1.498,1.498,0,0,0-.26762-.5234,1.20876,1.20876,0,0,0-.42758-.33378,1.38908,1.38908,0,0,0-1.1317,0,1.19466,1.19466,0,0,0-.42758.33675,1.52927,1.52927,0,0,0-.26768.52438,2.28388,2.28388,0,0,0-.09379.68138m3.58376,0a2.865,2.865,0,0,1-.17582,1.03987,2.155,2.155,0,0,1-.47695.75151,1.94952,1.94952,0,0,1-.70508.45327,2.50716,2.50716,0,0,1-1.72522,0,1.93177,1.93177,0,0,1-.70906-.45327,2.20412,2.20412,0,0,1-.48-.75151,3.106,3.106,0,0,1,0-2.07676,2.18338,2.18338,0,0,1,.48689-.75151,1.99125,1.99125,0,0,1,.712-.45624,2.46019,2.46019,0,0,1,1.70846,0,1.92244,1.92244,0,0,1,.70508.45624,2.21249,2.21249,0,0,1,.48.75151,2.77837,2.77837,0,0,1,.17974,1.03689" transform="translate(0.00473 0.02594)" fill="#ededee"/>
    <path d="M140.87965,43.70207v1.39736c.09282.00889.19161.01481.29823.01974.10566.00494.20246.00692.29034.00692a3.48312,3.48312,0,0,0,.48092-.03259,1.25749,1.25749,0,0,0,.38316-.11652.68528.68528,0,0,0,.2587-.22218.61581.61581,0,0,0,.09584-.35748.56183.56183,0,0,0-.28443-.54314,1.68777,1.68777,0,0,0-.788-.15209Zm0-.6567h.58857a1.69452,1.69452,0,0,0,.74854-.13431.49537.49537,0,0,0,.27159-.48685.48475.48475,0,0,0-.28148-.47105,1.65485,1.65485,0,0,0-.73172-.13925c-.12838,0-.242.002-.34073.00692-.09975.00494-.18468.01086-.25478.02073Zm.56193,2.77592q-.36445,0-.73474-.02271a3.37738,3.37738,0,0,1-.64879-.09677v-4.4577c.09674-.01679.20041-.03357.311-.04938.10964-.01481.22319-.02765.33777-.03654.11452-.0079.22814-.01481.34169-.01876.11157-.00493.21825-.0069.3209-.0069a4.42471,4.42471,0,0,1,.77428.0622,2.01187,2.01187,0,0,1,.61913.20837,1.09487,1.09487,0,0,1,.40787.38513,1.11,1.11,0,0,1,.14514.58955.97042.97042,0,0,1-.156.556,1.10055,1.10055,0,0,1-.43258.37032,1.21,1.21,0,0,1,.61527.41081,1.13161,1.13161,0,0,1,.19848.68831,1.20712,1.20712,0,0,1-.51552,1.06456,2.83451,2.83451,0,0,1-1.58393.35352" transform="translate(0.00473 0.02594)" fill="#ededee"/>
    <path d="M146.60511,42.066q-.15406.35106-.34862.85421-.19547.50363-.40685,1.09319h1.509q-.2103-.58955-.4098-1.1001c-.13236-.33872-.24688-.62215-.34368-.8473m1.35393,3.70223c-.06124-.1817-.12645-.35946-.19257-.53623-.06715-.17675-.13037-.35748-.19257-.54313H145.6344c-.06124.18564-.12344.36735-.18866.5461-.06317.17974-.12736.3565-.1886.53326h-.86806c.17088-.4898.33579-.94209.48984-1.35785q.23109-.62214.45326-1.17811.22069-.557.43946-1.06061.21925-.50214.45031-.99245h.79694q.23109.4903.45031.99245.21771.50366.44042,1.06061.22223.55548.45724,1.17811.23407.62363.4928,1.35785Z" transform="translate(0.00473 0.02594)" fill="#ededee"/>
    <polygon points="152.759 41.205 152.759 41.926 151.347 41.926 151.347 45.794 150.507 45.794 150.507 41.926 149.096 41.926 149.096 41.205 152.759 41.205" fill="#ededee"/>
    <polygon points="153.891 45.794 153.891 41.205 156.838 41.205 156.838 41.913 154.725 41.913 154.725 43.046 156.607 43.046 156.607 43.741 154.725 43.741 154.725 45.085 156.998 45.085 156.998 45.794 153.891 45.794" fill="#ededee"/>
    <path d="M160.01174,41.89332c-.01386.3012-.02869.60635-.04647.91841a8.90411,8.90411,0,0,1-.09578.90063,4.92039,4.92039,0,0,1-.20246.81767,2.20333,2.20333,0,0,1-.36435.6725,1.68594,1.68594,0,0,1-.57971.4592,2.00967,2.00967,0,0,1-.85022.18566l-.09282-.72781a1.7567,1.7567,0,0,0,.41673-.09284,1.10029,1.10029,0,0,0,.312-.17577,1.05753,1.05753,0,0,0,.23109-.27158,1.86862,1.86862,0,0,0,.1728-.38117,5.20864,5.20864,0,0,0,.238-1.2917q.05922-.77321.06021-1.72817h2.86777v4.59h-.84136V41.89332Z" transform="translate(0.00473 0.02594)" fill="#ededee"/>
    <path d="M164.86674,43.52956h-.17184a1.30683,1.30683,0,0,0-.18661.01284v1.55042c.0622.00395.13429.0079.21626.00987.08095.002.17974.003.29426.003a2.63939,2.63939,0,0,0,.44735-.03653,1.20323,1.20323,0,0,0,.37725-.12541.75016.75016,0,0,0,.26171-.238.67734.67734,0,0,0,.09873-.38119.65075.65075,0,0,0-.36737-.63,1.326,1.326,0,0,0-.42065-.12838,3.68873,3.68873,0,0,0-.54909-.03654m2.20518.795a1.26743,1.26743,0,0,1-.55307,1.11591,2.71511,2.71511,0,0,1-1.55338.38119c-.18462,0-.393-.01184-.62606-.03357a5.157,5.157,0,0,1-.66458-.10567V41.17826h.83347v1.64917a2.06721,2.06721,0,0,1,.21228-.01284h.20541q2.1449,0,2.14593,1.50992" transform="translate(0.00473 0.02594)" fill="#ededee"/>
    <path d="M170.39631,45.86751a2.561,2.561,0,0,1-.92731-.159,1.83944,1.83944,0,0,1-.6952-.46709,2.10155,2.10155,0,0,1-.43753-.75151,3.13194,3.13194,0,0,1-.15207-1.02012,2.7751,2.7751,0,0,1,.17479-1.02012,2.24883,2.24883,0,0,1,.48092-.75151,2.01577,2.01577,0,0,1,.715-.4661,2.40937,2.40937,0,0,1,.8809-.159,2.846,2.846,0,0,1,.51649.04246,3.87,3.87,0,0,1,.40486.09579,1.70369,1.70369,0,0,1,.28443.11258c.075.03951.12838.06913.159.08592l-.245.68237a2.0051,2.0051,0,0,0-.45326-.18861,2.20761,2.20761,0,0,0-.63993-.08887,1.5,1.5,0,0,0-.556.10269,1.19687,1.19687,0,0,0-.44735.30812,1.41907,1.41907,0,0,0-.29426.51647,2.24723,2.24723,0,0,0-.10566.72089,2.58593,2.58593,0,0,0,.08191.66955,1.49359,1.49359,0,0,0,.25484.52634,1.159,1.159,0,0,0,.43747.34465,1.5001,1.5001,0,0,0,.63595.12246,2.3938,2.3938,0,0,0,.7219-.08987,2.79621,2.79621,0,0,0,.43054-.16886l.22518.68237a1.09353,1.09353,0,0,1-.2153.10566c-.09083.03556-.19752.06913-.321.1037a3.28647,3.28647,0,0,1-.4177.079,3.91724,3.91724,0,0,1-.49672.02962" transform="translate(0.00473 0.02594)" fill="#ededee"/>
    <path d="M175.82089,45.76827c-.11458-.17675-.24688-.36143-.397-.556-.15111-.19455-.30812-.38218-.474-.56388-.16593-.17974-.33675-.35256-.51251-.51549a4.73861,4.73861,0,0,0-.52438-.42464v2.06h-.83347v-4.589h.83347v1.89407q.21916-.21925.45718-.46711c.159-.1659.318-.33378.47405-.50363.157-.16985.30511-.33478.44735-.49376.14122-.159.26858-.30218.38412-.42957h.9994c-.1452.16688-.30022.34168-.46314.52239-.16394.18072-.33084.36341-.50365.54709-.17184.18269-.34567.36539-.52046.54512q-.26065.27257-.51251.51747a6.02547,6.02547,0,0,1,.56585.49376c.19161.18664.38117.3881.56585.60239.18667.21429.36339.43649.53324.66856s.32692.46314.46712.69224Z" transform="translate(0.00473 0.02594)" fill="#ededee"/>
    <path d="M179.78558,42.066q-.15406.35106-.34862.85421-.19547.50363-.40685,1.09319h1.509q-.2103-.58955-.4098-1.1001c-.13236-.33872-.24688-.62215-.34368-.8473m1.35393,3.70223c-.06124-.1817-.12645-.35946-.19257-.53623-.06714-.17675-.13037-.35748-.19257-.54313h-1.93949q-.09186.27846-.18866.5461c-.06317.17974-.12736.3565-.1886.53326h-.86806q.25776-.7347.48984-1.35785.23109-.62214.45326-1.17811.22069-.557.43946-1.06061.21925-.50214.45031-.99245h.79694q.23109.4903.45031.99245.21771.50366.44042,1.06061.22223.55548.45724,1.17811.23407.62363.4928,1.35785Z" transform="translate(0.00473 0.02594)" fill="#ededee"/>
    <path d="M185.13921,41.85334a2.74683,2.74683,0,0,0-.46706.03752,1.18342,1.18342,0,0,0-.3743.12246.6302.6302,0,0,0-.24785.23107.66928.66928,0,0,0-.08987.35748.69141.69141,0,0,0,.08987.37132.61565.61565,0,0,0,.25773.23207,1.30976,1.30976,0,0,0,.41083.11948,4.10989,4.10989,0,0,0,.54608.03259h.36442V41.87408c-.155-.01382-.318-.02073-.48984-.02073m.05931-.7209q.2725,0,.61618.02272a4.60873,4.60873,0,0,1,.64879.08887v4.52385h-.83443V44.04565h-.48388c-.0563,0-.11657-.001-.17775-.003a1.47667,1.47667,0,0,1-.17287-.01579,3.92869,3.92869,0,0,0-.2646.36044c-.0889.1353-.17479.27848-.26171.43057q-.12893.22811-.25876.47006-.12884.24144-.24785.47993h-.88777c.08-.17183.16491-.34562.25773-.52339.09379-.17677.18763-.34662.28142-.51252.09578-.16491.19059-.32094.28642-.46414.09379-.14318.18167-.26564.26068-.36735a1.29482,1.29482,0,0,1-.66265-.48981,1.44558,1.44558,0,0,1-.21228-.80187,1.34771,1.34771,0,0,1,.15008-.6488,1.2564,1.2564,0,0,1,.42264-.46019,2.04826,2.04826,0,0,1,.66663-.27453,3.77215,3.77215,0,0,1,.874-.09284" transform="translate(0.00473 0.02594)" fill="#ededee"/>
    <path d="M128.95768,56.21343a2.55212,2.55212,0,0,1-.92635-.159,1.82447,1.82447,0,0,1-.6952-.4671,2.10321,2.10321,0,0,1-.43849-.75151,3.158,3.158,0,0,1-.15207-1.02011,2.7751,2.7751,0,0,1,.17479-1.02012,2.24876,2.24876,0,0,1,.48092-.75151,2.01577,2.01577,0,0,1,.715-.4661,2.40937,2.40937,0,0,1,.8809-.159,2.85706,2.85706,0,0,1,.51745.04246,3.84373,3.84373,0,0,1,.40389.09579,1.70369,1.70369,0,0,1,.28443.11258c.075.03951.12838.06913.159.08592l-.245.68237a2.00506,2.00506,0,0,0-.45326-.18862,2.20761,2.20761,0,0,0-.63993-.08887,1.49981,1.49981,0,0,0-.556.1027,1.19694,1.19694,0,0,0-.44735.30811,1.419,1.419,0,0,0-.29426.51648,2.24716,2.24716,0,0,0-.10566.72089,2.58587,2.58587,0,0,0,.08191.66954,1.49363,1.49363,0,0,0,.25484.52635,1.16658,1.16658,0,0,0,.43747.34465,1.50022,1.50022,0,0,0,.63595.12245,2.39407,2.39407,0,0,0,.7219-.08986,2.79533,2.79533,0,0,0,.43054-.16886l.22518.68237a1.09309,1.09309,0,0,1-.2153.10567c-.09083.03555-.19752.06913-.321.10369a3.2864,3.2864,0,0,1-.4177.079,3.91724,3.91724,0,0,1-.49672.02962" transform="translate(0.00473 0.02594)" fill="#ededee"/>
    <path d="M133.88771,54.74271a4.98293,4.98293,0,0,1-.34169.64585,2.03728,2.03728,0,0,1-.38419.45327,1.381,1.381,0,0,1-.46411.26564,1.785,1.785,0,0,1-.57278.08591,2.12019,2.12019,0,0,1-.40094-.0395,1.5892,1.5892,0,0,1-.34169-.09974l.15207-.6883a1.55251,1.55251,0,0,0,.26665.083,1.44471,1.44471,0,0,0,.28636.02962.87488.87488,0,0,0,.50859-.13924,1.29955,1.29955,0,0,0,.37629-.45623q-.27856-.45179-.53529-.90753-.25622-.45773-.475-.89174c-.14719-.28935-.28045-.56586-.40293-.83051-.12145-.26564-.23205-.50758-.32885-.72879h.93418c.07016.1817.15111.37525.242.58263s.18757.42168.29227.64189c.10367.2212.21331.44735.32885.67645.11458.22911.2291.4592.34465.68831q.23995-.58808.45923-1.25811.21916-.66807.41179-1.33118h.90061q-.15849.4903-.319.92431c-.10566.28934-.21132.56486-.31505.82755-.10566.26268-.20933.5145-.314.75447-.10367.241-.20638.479-.30806.712" transform="translate(0.00473 0.02594)" fill="#ededee"/>
    <path d="M137.56851,52.23923c-.01284.26465-.02863.53721-.04641.81471a7.83175,7.83175,0,0,1-.09578.82458,5.65865,5.65865,0,0,1-.19553.795,3.17813,3.17813,0,0,1-.34465.73175h1.87433v-3.166Zm-2.17251,3.166h.56977a3.412,3.412,0,0,0,.46019-.86408,5.18446,5.18446,0,0,0,.238-.94012,7.72027,7.72027,0,0,0,.08987-1.00727c.00886-.34564.0138-.70312.0138-1.06949h2.81442v3.881h.68242V57.3398h-.80188V56.11428h-3.26479V57.3398H135.396Z" transform="translate(0.00473 0.02594)" fill="#ededee"/>
    <polygon points="141.427 56.14 141.427 51.551 144.374 51.551 144.374 52.259 142.262 52.259 142.262 53.392 144.143 53.392 144.143 54.087 142.262 54.087 142.262 55.431 144.534 55.431 144.534 56.14 141.427 56.14" fill="#ededee"/>
    <path d="M146.907,55.43891h.16587c.06124,0,.13037-.003.20445-.00691a2.2893,2.2893,0,0,0,.394-.04642,1.02254,1.02254,0,0,0,.33084-.1264.63118.63118,0,0,0,.22615-.22417.69107.69107,0,0,0,.08294-.35156.8017.8017,0,0,0-.086-.39106.62385.62385,0,0,0-.25176-.241,1.21266,1.21266,0,0,0-.40094-.1264,3.46224,3.46224,0,0,0-.5333-.03654h-.4236v1.53659c.03948.00395.08294.0079.12935.00988s.09975.00395.162.00395m-.2913-3.20551v.96679h.45031a4.43881,4.43881,0,0,1,.88675.08,1.90607,1.90607,0,0,1,.66265.25379,1.16545,1.16545,0,0,1,.41378.45723,1.51289,1.51289,0,0,1,.14321.68633,1.25913,1.25913,0,0,1-.54017,1.11491,2.71738,2.71738,0,0,1-1.54054.36835c-.18468,0-.395-.00988-.62811-.03061a4.47746,4.47746,0,0,1-.66259-.10172V51.52437h2.93985v.709Z" transform="translate(0.00473 0.02594)" fill="#ededee"/>
    <polygon points="153.295 51.551 154.13 51.551 154.13 56.14 153.295 56.14 153.295 54.107 151.301 54.107 151.301 56.14 150.467 56.14 150.467 51.551 151.301 51.551 151.301 53.384 153.295 53.384 153.295 51.551" fill="#ededee"/>
    <path d="M159.68832,51.52418h.83443v4.589h-.83443Zm-2.78188,2.35129h-.16889a1.19291,1.19291,0,0,0-.18167.01283v1.55042a1.41622,1.41622,0,0,0,.2024.01283h.29432a2.47673,2.47673,0,0,0,.43349-.03653,1.09135,1.09135,0,0,0,.36146-.12541.663.663,0,0,0,.33771-.61918.74446.74446,0,0,0-.08987-.38415.671.671,0,0,0-.25478-.24589,1.21189,1.21189,0,0,0-.40094-.12838,3.45215,3.45215,0,0,0-.53324-.03653m2.14593.795a1.4053,1.4053,0,0,1-.14225.64881,1.2735,1.2735,0,0,1-.41083.4671,1.90428,1.90428,0,0,1-.64879.28441,3.50512,3.50512,0,0,1-.85715.09678c-.18564,0-.39208-.01185-.61624-.03358a5.15926,5.15926,0,0,1-.65572-.10567V51.52418h.83449v1.64916a1.6742,1.6742,0,0,1,.19848-.01284h.19257a2.73043,2.73043,0,0,1,1.5761.37428,1.29785,1.29785,0,0,1,.52932,1.13565" transform="translate(0.00473 0.02594)" fill="#ededee"/>
    <path d="M164.84341,56.11408q-.19257-.35995-.48394-.79595-.29176-.434-.61027-.83742c-.08788.10567-.18365.23108-.28636.37823-.10373.14517-.20644.29428-.31011.44636q-.15406.22812-.28636.44142c-.08788.14121-.158.26465-.21132.36735h-.954q.30514-.551.70406-1.13071.4-.57918.8671-1.21466l-1.504-2.24365h.99343l1.00434,1.506,1.00922-1.506h.953l-1.48623,2.22q.514.6725.91242,1.27292c.2637.39995.48689.76533.66663,1.09615Z" transform="translate(0.00473 0.02594)" fill="#ededee"/>
    <path d="M172.26516,53.816a3.11252,3.11252,0,0,1-.162,1.0527,2.0462,2.0462,0,0,1-.45428.74855,1.83549,1.83549,0,0,1-.70508.44636,2.63856,2.63856,0,0,1-.91152.1501,3.50846,3.50846,0,0,1-.83642-.09282,2.16352,2.16352,0,0,1-.59352-.22615l.22615-.68139a3.23392,3.23392,0,0,0,.43252.16887,2.39819,2.39819,0,0,0,.71991.08986,1.30471,1.30471,0,0,0,.97276-.35551,1.61224,1.61224,0,0,0,.42463-.98258h-1.97409v-.709h1.95335a1.52657,1.52657,0,0,0-.41378-.94408,1.31949,1.31949,0,0,0-.96287-.33378,2.27722,2.27722,0,0,0-.69918.09184,3.19082,3.19082,0,0,0-.44832.17973l-.23109-.66263a2.65856,2.65856,0,0,1,.59647-.235,3.08343,3.08343,0,0,1,.8404-.10271,2.5176,2.5176,0,0,1,.89073.15307,1.90094,1.90094,0,0,1,.70514.45327,2.049,2.049,0,0,1,.46411.75151,3.00336,3.00336,0,0,1,.16593,1.03986" transform="translate(0.00473 0.02594)" fill="#ededee"/>
    <path d="M176.4179,56.11408c-.11458-.17676-.24688-.36143-.397-.556-.15111-.19454-.30812-.38217-.474-.56388-.16593-.17973-.33675-.35255-.51251-.51549a4.7385,4.7385,0,0,0-.52438-.42464v2.06h-.83347v-4.589H174.51v1.89407q.21916-.21923.45718-.4671c.159-.1659.318-.33378.47405-.50364.157-.16985.30511-.33477.44735-.49376.14122-.159.26858-.30218.38412-.42957h.9994c-.1452.16688-.30022.34168-.46314.52239-.16394.18072-.33084.36341-.50365.54709-.17184.18269-.34567.36539-.52046.54512q-.26065.27255-.51251.51746a6.02547,6.02547,0,0,1,.56585.49376c.19161.18665.38117.3881.56585.60239.18667.2143.36339.43649.53324.66856s.32692.46315.46712.69225Z" transform="translate(0.00473 0.02594)" fill="#ededee"/>
    <path d="M180.31882,56.21343a2.56113,2.56113,0,0,1-.92731-.159,1.83937,1.83937,0,0,1-.6952-.4671,2.11561,2.11561,0,0,1-.43753-.75151,3.13193,3.13193,0,0,1-.15207-1.02011,2.7751,2.7751,0,0,1,.17479-1.02012,2.24876,2.24876,0,0,1,.48092-.75151,2.01577,2.01577,0,0,1,.715-.4661,2.40937,2.40937,0,0,1,.8809-.159,2.846,2.846,0,0,1,.51649.04246,3.80864,3.80864,0,0,1,.40486.09579,1.70369,1.70369,0,0,1,.28443.11258c.075.03951.12838.06913.159.08592l-.245.68237a2.00506,2.00506,0,0,0-.45326-.18862,2.20761,2.20761,0,0,0-.63993-.08887,1.49981,1.49981,0,0,0-.556.1027,1.19694,1.19694,0,0,0-.44735.30811,1.419,1.419,0,0,0-.29426.51648,2.24716,2.24716,0,0,0-.10566.72089,2.58588,2.58588,0,0,0,.08191.66954,1.49363,1.49363,0,0,0,.25484.52635,1.16658,1.16658,0,0,0,.43747.34465,1.50022,1.50022,0,0,0,.63595.12245,2.39407,2.39407,0,0,0,.7219-.08986,2.79533,2.79533,0,0,0,.43054-.16886l.22518.68237a1.09309,1.09309,0,0,1-.2153.10567c-.09083.03555-.19752.06913-.321.10369a3.2864,3.2864,0,0,1-.4177.079,3.91724,3.91724,0,0,1-.49672.02962" transform="translate(0.00473 0.02594)" fill="#ededee"/>
    <polygon points="186.634 51.551 186.634 56.14 185.8 56.14 185.8 52.266 183.84 52.266 183.84 56.14 183.005 56.14 183.005 51.551 186.634 51.551" fill="#ededee"/>
    <polygon points="188.231 56.14 188.231 51.551 191.178 51.551 191.178 52.259 189.066 52.259 189.066 53.392 190.947 53.392 190.947 54.087 189.066 54.087 189.066 55.431 191.338 55.431 191.338 56.14 188.231 56.14" fill="#ededee"/>
    <path d="M193.96124,52.19924c-.21138,0-.38617.00692-.52342.02074v1.56325h.40389a2.05275,2.05275,0,0,0,.92828-.16986.6503.6503,0,0,0,.32391-.63794.76006.76006,0,0,0-.08589-.37823.61969.61969,0,0,0-.238-.238,1.1209,1.1209,0,0,0-.36146-.12245,2.55251,2.55251,0,0,0-.44729-.03753m-.05925-.7209a2.71991,2.71991,0,0,1,1.53361.36342,1.28574,1.28574,0,0,1,.53324,1.1396,1.55183,1.55183,0,0,1-.14315.69226,1.18563,1.18563,0,0,1-.41378.47006,1.91546,1.91546,0,0,1-.66265.2686,4.177,4.177,0,0,1-.89374.08592h-.4177v1.61559h-.83443V51.58994a4.29583,4.29583,0,0,1,.6468-.08887c.235-.01481.45326-.02272.6518-.02272" transform="translate(0.00473 0.02594)" fill="#ededee"/>
    <polygon points="200.431 51.551 200.431 52.271 199.02 52.271 199.02 56.14 198.179 56.14 198.179 52.271 196.768 52.271 196.768 51.551 200.431 51.551" fill="#ededee"/>
    <path d="M201.55827,56.11408v-4.589h.8275v3.04651q.22521-.35847.51353-.77224.28886-.41328.59647-.82458c.20541-.27354.40884-.53821.61226-.791.20342-.2538.392-.474.56983-.65867h.68236v4.589h-.82165V52.82958q-.27846.33033-.58556.74459-.30812.41328-.60635.85421-.29926.44142-.57573.87494-.28.434-.50365.81076Z" transform="translate(0.00473 0.02594)" fill="#ededee"/>
    <path d="M207.87014,53.37231a2.52568,2.52568,0,0,0,.38412-.02962,1.15909,1.15909,0,0,0,.34368-.10665.64957.64957,0,0,0,.24489-.20541.54356.54356,0,0,0,.09282-.32786.47867.47867,0,0,0-.2153-.41081,1.01206,1.01206,0,0,0-.59153-.15208,2.3,2.3,0,0,0-.6468.083,2.18138,2.18138,0,0,0-.473.19553l-.27159-.66954a2.16732,2.16732,0,0,1,.57869-.22812,3.2855,3.2855,0,0,1,.81864-.09579,2.73522,2.73522,0,0,1,.66169.076,1.47732,1.47732,0,0,1,.52438.236,1.13817,1.13817,0,0,1,.34362.397,1.17176,1.17176,0,0,1,.12543.556,1.01505,1.01505,0,0,1-.16491.553,1.072,1.072,0,0,1-.50268.40686,1.87133,1.87133,0,0,1,.33675.1659,1.12738,1.12738,0,0,1,.46712.57968,1.2293,1.2293,0,0,1,.06913.4276,1.40289,1.40289,0,0,1-.13134.632,1.14233,1.14233,0,0,1-.37822.43057,1.70063,1.70063,0,0,1-.59942.24886,3.60684,3.60684,0,0,1-.791.079,3.26287,3.26287,0,0,1-.47008-.03259,3.88083,3.88083,0,0,1-.42463-.0869,2.99077,2.99077,0,0,1-.35748-.11554c-.10566-.04148-.19354-.08-.26466-.11652l.24489-.66856c.05732.02666.12742.05629.21138.08987.0839.03259.17974.06518.2854.09579a3.35576,3.35576,0,0,0,.34465.079,2.07741,2.07741,0,0,0,.37719.03357,1.66156,1.66156,0,0,0,.798-.156.564.564,0,0,0,.28238-.54018.67018.67018,0,0,0-.09674-.37032.63294.63294,0,0,0-.26569-.22515,1.31837,1.31837,0,0,0-.39992-.10863,3.73574,3.73574,0,0,0-.49672-.03061h-.51649v-.68831Z" transform="translate(0.00473 0.02594)" fill="#ededee"/>
    <path d="M54.36739,36.23107C53.82426,48.64228,43.7841,58.49087,31.124,59.42112v-16.23l3.98464-.0079.0751-.001A15.56625,15.56625,0,0,0,50.3719,27.78575,15.56738,15.56738,0,0,0,35.18472,12.38924l-4.0607-.002V3.79382H54.39409ZM31.124,16.206l3.93726.002a11.57941,11.57941,0,0,1-.002,23.15549l-3.93527.0079ZM14.16328,54.678a24.502,24.502,0,0,1-10.21-18.66719l-.0267-32.217h23.269v8.57961H7.62882v3.82074h6.53446ZM-.00473-.02594.02583,36.0533l.001.077a28.446,28.446,0,0,0,15.1565,23.71048l2.9073,1.54745V41.28817h.001v-25.093l9.104.0079V63.31295h1.9642c15.69872,0,28.496-11.84338,29.134-26.96339l.03158-36.3755Z" transform="translate(0.00473 0.02594)" fill="#b7905c"/>
    <g>
      <path d="M72.7984,52.24155q-.01984.44968-.04628.91541a8.79851,8.79851,0,0,1-.09584.89935,4.88411,4.88411,0,0,1-.20159.81579,2.19748,2.19748,0,0,1-.36351.67086,1.70287,1.70287,0,0,1-.57833.45983,2.02408,2.02408,0,0,1-.8493.18459l-.09254-.727a1.74,1.74,0,0,0,.41639-.09253,1.02333,1.02333,0,0,0,.542-.44566,1.84779,1.84779,0,0,0,.17185-.38051,5.21994,5.21994,0,0,0,.23794-1.28836q.05947-.7733.05949-1.72553h2.86187v4.58032h-.83939V52.24155Z" transform="translate(0.00473 0.02594)" fill="#ededee"/>
      <path d="M78.14885,52.41359q-.15225.35053-.347.85261-.19545.50208-.40648,1.09055h1.50694q-.21172-.58847-.40977-1.09716-.19828-.50916-.34369-.846m1.35163,3.69465q-.09278-.27122-.19215-.53536-.09984-.26414-.19215-.542H77.18151q-.09278.27759-.18884.54528-.09632.26769-.18884.53206h-.86632q.25778-.73364.48863-1.35493.23156-.621.45275-1.17648.22093-.55519.43905-1.0575.21812-.50279.449-.99141h.795q.23085.48934.44944.99141.2181.50208.43953,1.0575.22164.5552.45605,1.17648.23439.62176.4924,1.35493Z" transform="translate(0.00473 0.02594)" fill="#ededee"/>
      <path d="M82.57344,55.434h.16522c.06185,0,.12984-.00236.2049-.00661a2.24115,2.24115,0,0,0,.39325-.04627,1.04683,1.04683,0,0,0,.33048-.12557.64034.64034,0,0,0,.22473-.22472.67287.67287,0,0,0,.08261-.3503.78843.78843,0,0,0-.08593-.39.61652.61652,0,0,0-.25115-.24124,1.24537,1.24537,0,0,0-.39988-.12557,3.51922,3.51922,0,0,0-.532-.03636h-.423v1.53338c.03965.00473.08261.008.12887.01039.04626.00142.10009.00283.16194.00283m-.29081-3.199v.965h.44944a4.50527,4.50527,0,0,1,.88565.07931,1.91167,1.91167,0,0,1,.661.25446,1.1556,1.1556,0,0,1,.41309.45605,1.50156,1.50156,0,0,1,.1421.68407,1.25538,1.25538,0,0,1-.53868,1.11369,2.71653,2.71653,0,0,1-1.53668.36682q-.27759,0-.6279-.02974a4.60141,4.60141,0,0,1-.66094-.10245V51.52788h2.93458v.7072Z" transform="translate(0.00473 0.02594)" fill="#ededee"/>
      <path d="M92.79408,52.20171c-.2115,0-.38522.00708-.52214.01982v1.5603h.40318a2.04786,2.04786,0,0,0,.92579-.16854.65232.65232,0,0,0,.32339-.63781.75369.75369,0,0,0-.08593-.37673.61949.61949,0,0,0-.23746-.23841,1.13432,1.13432,0,0,0-.36069-.12228,2.65912,2.65912,0,0,0-.44614-.03635m-.05947-.72a2.70287,2.70287,0,0,1,1.53008.36352,1.28016,1.28016,0,0,1,.532,1.13682,1.54475,1.54475,0,0,1-.1421.69068,1.19478,1.19478,0,0,1-.41309.46927,1.90752,1.90752,0,0,1-.66046.26768,4.19031,4.19031,0,0,1-.89275.08592h-.41639v1.6127h-.83279V51.59411a4.17731,4.17731,0,0,1,.64441-.08922q.35408-.02266.651-.02314" transform="translate(0.00473 0.02594)" fill="#ededee"/>
      <path d="M97.45065,52.41359q-.15225.35053-.347.85261-.19545.50208-.40648,1.09055h1.50694q-.21172-.58847-.40977-1.09716-.19828-.50916-.34369-.846m1.35163,3.69465q-.09278-.27122-.19215-.53536-.09984-.26414-.19215-.542H96.48331q-.09278.27759-.18884.54528-.09632.26769-.18884.53206h-.86632q.25778-.73364.48863-1.35493.23156-.621.45275-1.17648.22093-.55519.43905-1.0575.21812-.50279.449-.99141h.795q.23085.48934.44944.99141.2181.50208.43953,1.0575.22164.5552.45605,1.17648.23439.62176.4924,1.35493Z" transform="translate(0.00473 0.02594)" fill="#ededee"/>
      <polygon points="103.69 51.554 103.69 52.274 102.282 52.274 102.282 56.134 101.443 56.134 101.443 52.274 100.035 52.274 100.035 51.554 103.69 51.554" fill="#ededee"/>
      <path d="M105.16607,53.81459a2.36035,2.36035,0,0,0,.09252.68408,1.49012,1.49012,0,0,0,.26769.52262,1.218,1.218,0,0,0,.4263.33377,1.31089,1.31089,0,0,0,.56841.119,1.2975,1.2975,0,0,0,.5618-.119,1.22217,1.22217,0,0,0,.4263-.33377,1.50613,1.50613,0,0,0,.26769-.52262,2.57336,2.57336,0,0,0,0-1.36768,1.5061,1.5061,0,0,0-.26769-.52261,1.2221,1.2221,0,0,0-.4263-.33378,1.2976,1.2976,0,0,0-.5618-.119,1.311,1.311,0,0,0-.56841.119,1.20029,1.20029,0,0,0-.4263.33708,1.53221,1.53221,0,0,0-.26769.52261,2.3272,2.3272,0,0,0-.09252.68029m3.57569,0a2.84868,2.84868,0,0,1-.17515,1.03768,2.1506,2.1506,0,0,1-.47589.75016,1.95919,1.95919,0,0,1-.7039.45274,2.41083,2.41083,0,0,1-.85921.152,2.43843,2.43843,0,0,1-.86254-.152,1.94824,1.94824,0,0,1-.7072-.45274,2.17767,2.17767,0,0,1-.47919-.75016,2.79807,2.79807,0,0,1-.17845-1.03768,2.76885,2.76885,0,0,1,.17845-1.03389,2.16945,2.16945,0,0,1,.4858-.75017,1.9985,1.9985,0,0,1,.71051-.45605,2.4671,2.4671,0,0,1,1.70523,0,1.93647,1.93647,0,0,1,.7039.45605,2.22564,2.22564,0,0,1,.47917.75017,2.76856,2.76856,0,0,1,.17846,1.03389" transform="translate(0.00473 0.02594)" fill="#ededee"/>
      <path d="M111.36657,52.20171c-.2115,0-.38522.00708-.52214.01982v1.5603h.40318a2.04786,2.04786,0,0,0,.92579-.16854.65232.65232,0,0,0,.32339-.63781.75369.75369,0,0,0-.08593-.37673.61949.61949,0,0,0-.23746-.23841,1.13432,1.13432,0,0,0-.36069-.12228,2.65912,2.65912,0,0,0-.44614-.03635m-.05947-.72a2.70287,2.70287,0,0,1,1.53008.36352,1.28016,1.28016,0,0,1,.532,1.13682,1.54475,1.54475,0,0,1-.1421.69068,1.19478,1.19478,0,0,1-.41309.46927,1.90752,1.90752,0,0,1-.66046.26768,4.19031,4.19031,0,0,1-.89275.08592h-.41639v1.6127h-.83279V51.59411a4.17731,4.17731,0,0,1,.64441-.08922q.35408-.02266.651-.02314" transform="translate(0.00473 0.02594)" fill="#ededee"/>
      <path d="M114.53668,56.10824V51.52792h.82618v3.04033q.22447-.35691.51223-.77.28751-.41356.59484-.82287.30735-.41.61138-.78983.30379-.38028.56841-.65764h.68076v4.58032h-.81956V52.83q-.27759.33-.58494.74356t-.60475.85261q-.29743.43976-.575.87244t-.50231.80965Z" transform="translate(0.00473 0.02594)" fill="#ededee"/>
      <path d="M121.85306,52.20171a2.86259,2.86259,0,0,0-.466.03635,1.21014,1.21014,0,0,0-.37344.12228.64505.64505,0,0,0-.24785.2318.67128.67128,0,0,0-.08922.35644.69826.69826,0,0,0,.08922.3706.62533.62533,0,0,0,.25776.23132,1.29182,1.29182,0,0,0,.40979.119,4.02009,4.02009,0,0,0,.54528.03305h.36351v-1.481c-.15438-.01274-.31725-.01982-.48909-.01982m.05949-.72c.18081,0,.38522.008.61466.02314a4.50167,4.50167,0,0,1,.64773.08922v4.51422h-.83279V54.38989h-.48249c-.05711,0-.1166-.00141-.17845-.00377a1.25919,1.25919,0,0,1-.17184-.016,3.87616,3.87616,0,0,0-.26438.36021q-.13243.20181-.26108.42961-.12889.228-.25776.46927-.12889.24148-.24786.47918h-.88565q.119-.25777.25776-.52261.13879-.26414.2809-.51223.14233-.24714.2842-.46218.14235-.21528.26108-.36683a1.28646,1.28646,0,0,1-.66094-.48957,1.429,1.429,0,0,1-.2115-.79926,1.35226,1.35226,0,0,1,.14871-.64773,1.25517,1.25517,0,0,1,.423-.45983,2.0572,2.0572,0,0,1,.66424-.27381,3.77888,3.77888,0,0,1,.87245-.09254" transform="translate(0.00473 0.02594)" fill="#ededee"/>
      <path d="M86.7356,53.81082a2.36035,2.36035,0,0,0,.09252.68408,1.49012,1.49012,0,0,0,.26769.52262,1.218,1.218,0,0,0,.4263.33377,1.31089,1.31089,0,0,0,.56841.119,1.2975,1.2975,0,0,0,.5618-.119,1.22217,1.22217,0,0,0,.4263-.33377,1.50613,1.50613,0,0,0,.26769-.52262,2.57336,2.57336,0,0,0,0-1.36768,1.5061,1.5061,0,0,0-.26769-.52261,1.2221,1.2221,0,0,0-.4263-.33378,1.2976,1.2976,0,0,0-.5618-.119,1.311,1.311,0,0,0-.56841.119,1.20029,1.20029,0,0,0-.4263.33708,1.53221,1.53221,0,0,0-.26769.52261,2.3272,2.3272,0,0,0-.09252.68029m3.57569,0a2.84868,2.84868,0,0,1-.17515,1.03768,2.1506,2.1506,0,0,1-.47589.75016,1.95919,1.95919,0,0,1-.7039.45274,2.41083,2.41083,0,0,1-.85921.152,2.43843,2.43843,0,0,1-.86254-.152,1.94824,1.94824,0,0,1-.7072-.45274,2.17767,2.17767,0,0,1-.47919-.75016,2.79807,2.79807,0,0,1-.17845-1.03768,2.76885,2.76885,0,0,1,.17845-1.03389,2.16945,2.16945,0,0,1,.4858-.75017,1.9985,1.9985,0,0,1,.71051-.45605,2.4671,2.4671,0,0,1,1.70523,0,1.93647,1.93647,0,0,1,.7039.45605,2.22564,2.22564,0,0,1,.47917.75017,2.76856,2.76856,0,0,1,.17846,1.03389" transform="translate(0.00473 0.02594)" fill="#ededee"/>
    </g>
  </g>
</svg>
