<svg xmlns="http://www.w3.org/2000/svg" width="44" height="48" viewBox="0 0 44 48">
  <metadata><?xpacket begin="﻿" id="W5M0MpCehiHzreSzNTczkc9d"?>
<x:xmpmeta xmlns:x="adobe:ns:meta/" x:xmptk="Adobe XMP Core 5.6-c138 79.159824, 2016/09/14-01:09:01        ">
   <rdf:RDF xmlns:rdf="http://www.w3.org/1999/02/22-rdf-syntax-ns#">
      <rdf:Description rdf:about=""/>
   </rdf:RDF>
</x:xmpmeta>
                                                                                                    
                                                                                                    
                                                                                                    
                                                                                                    
                                                                                                    
                                                                                                    
                                                                                                    
                                                                                                    
                                                                                                    
                                                                                                    
                                                                                                    
                                                                                                    
                                                                                                    
                                                                                                    
                                                                                                    
                                                                                                    
                                                                                                    
                                                                                                    
                                                                                                    
                                                                                                    
                           
<?xpacket end="w"?></metadata>
<defs>
    <style>
      .cls-1 {
        fill: #b7905c;
        fill-rule: evenodd;
      }
    </style>
  </defs>
  <path id="Peritus_sign" class="cls-1" d="M41.015,27.473A18.648,18.648,0,0,1,23.481,45.048v-12.3l3.006-.006h0.056a11.671,11.671,0,0,0,0-23.337l-3.063,0V2.889H41.035ZM23.481,12.3l2.97,0a8.777,8.777,0,0,1,0,17.549l-2.969.006V12.3ZM10.687,41.453a18.592,18.592,0,0,1-7.7-14.147L2.965,2.889H20.518v6.5H5.757v2.9h4.929V41.453ZM0-.006L0.022,27.338V27.4a21.568,21.568,0,0,0,11.434,17.97l2.193,1.173V31.305h0V12.288l6.868,0.005V48H22c11.842,0,21.5-8.976,21.977-20.435L44-.006H0Z"/>
</svg>
