<svg xmlns="http://www.w3.org/2000/svg" viewBox="0 0 100 100">
  <title>1_Target_c</title>
  <path d="M82.72455,31.65057a15.73609,15.73609,0,0,0,5.813-3.37567l6.14746-6.14746L89.18658,16.629l3.0141-3.01422a1.70079,1.70079,0,0,0-2.40625-2.4043l-3.01312,3.01324L81.28369,8.72607l-6.21,6.21387a15.577,15.577,0,0,0-3.31445,5.66895,42.11746,42.11746,0,0,0-18.12207-7.10156V2.12256H42.45166V13.41693A42.32908,42.32908,0,0,0,14.54724,81.81488L6.39307,89.96826l7.90918,7.90918,8.29865-8.29865a42.27575,42.27575,0,0,0,50.39368-.15369l8.45319,8.45233,7.9082-7.90918-8.36084-8.36084a42.25717,42.25717,0,0,0,1.72943-49.95685ZM56.51025,55.28271a8.24288,8.24288,0,1,1-3.84412-6.94312l-5.82483,5.825a1.70079,1.70079,0,1,0,2.40625,2.4043l5.86462-5.86475A8.16651,8.16651,0,0,1,56.51025,55.28271Zm-1.39984-9.38745a11.668,11.668,0,1,0,2.42932,2.38123l4.22974-4.22986a17.81742,17.81742,0,1,1-2.40527-2.40527Zm6.65839-6.65857A21.25708,21.25708,0,1,0,64.17407,41.642l5.83057-5.83069a29.47024,29.47024,0,1,1-2.40533-2.40521ZM81.28369,13.53662,84.376,16.629,76.54309,24.4621,74.50116,26.504a12.00438,12.00438,0,0,1,.18317-3.68536,11.78287,11.78287,0,0,1,2.8562-5.53888Zm4.91406,12.27148a11.84794,11.84794,0,0,1-9.28766,3.0976l2.03192-2.032,1.68079-1.68085h6.18951Zm-2.17267-4.01758,2.75623-2.75629,2.75629,2.75629ZM45.854,5.5249h4.38086V12.939H45.854Zm-31.55176,87.542-3.09863-3.09863,5.24414-5.24316,3.09766,3.09863Zm67.14551,0-5.24414-5.24316,3.09863-3.09863,5.24316,5.24316ZM47.68994,94.4292A38.97267,38.97267,0,1,1,71.06854,24.296a15.86678,15.86678,0,0,0,.53308,5.1076l-1.59216,1.59222a32.86889,32.86889,0,1,0,2.40533,2.40527l1.59467-1.59479a15.6752,15.6752,0,0,0,4.15216.55743c.28192,0,.57813-.01569.87463-.03229A38.94914,38.94914,0,0,1,47.68994,94.4292Z" fill="#d9ab6d"/>
</svg>
