<svg xmlns="http://www.w3.org/2000/svg" viewBox="0 0 100 100">
  <title>2_reward</title>
  <g>
    <path d="M74.04459,60.244l.02606-.16937,7.5918-1.998a1.70175,1.70175,0,0,0,1.208-2.0918L80.805,48.41055l6.123-4.91406a1.70029,1.70029,0,0,0,.25293-2.40234L82.21225,35.015c5.211-10.112,6.06154-7.65668-4.16113-12.80859l.44531-7.83789a1.70375,1.70375,0,0,0-1.61719-1.7959l-7.84082-.376c-2.48034-6.54889-2.81449-9.16823-4.9873-8.32324l-7.31641,2.8457L51.20834,1.143a1.7511,1.7511,0,0,0-2.416,0L43.266,6.71915C36.7734,4.19421,34.5722,2.671,33.74155,4.85587l-2.78027,7.34082c-11.35119.5443-9.66323-1.44016-9.0127,10.00977C11.80152,27.321,12.534,24.81781,17.78745,35.015c-5.22134,6.38939-5.44786,6.33295-5.3418,7.333.1039,1,.31817.90058,6.749,6.0625-2.98982,10.96926-4.35242,8.74581,6.73438,11.66406l.001.00671-13.684,23.07574,15.5611,16.18335,14.92743-23.988a1.68221,1.68221,0,0,0,.70026-.25635l6.56543-4.30469c.52468.34406,6.58264,4.42978,7.2002,4.54065L72.3519,99.34042l15.402-16.23492ZM46.79715,68.82407c-.76706.50294-3.03518,1.99012-3.79291,2.48688-1.50713-2.3438-2.39775-3.72889-3.9209-6.09766-.8662-1.34475-1.92271-.72332-8.85937.40723-1.177-7.6502-.84546-8.15567-2.48627-8.58746l-6.87506-1.809,1.90723-6.99512c.38612-1.41155-.328-1.57422-6.23047-6.31152,4.68421-5.73113,5.46234-6.14916,4.78223-7.46875L18.00229,28.0043l6.47363-3.2627a1.70184,1.70184,0,0,0,.93262-1.61523l-.41113-7.23828,7.24023-.34668a1.704,1.704,0,0,0,1.50977-1.09668l2.56738-6.7793,6.75781,2.62793a1.69793,1.69793,0,0,0,1.82422-.3877l5.10352-5.14941,5.10352,5.14941a1.6987,1.6987,0,0,0,1.82422.3877l6.75684-2.62793,2.56738,6.7793a1.704,1.704,0,0,0,1.50977,1.09668l7.24023.34668-.41113,7.23828a1.70184,1.70184,0,0,0,.93262,1.61523l6.47461,3.2627-3.32031,6.44434a1.70193,1.70193,0,0,0,.19434,1.85547l4.58789,5.61328L77.806,46.45547a1.69857,1.69857,0,0,0-.57617,1.77344L79.13705,55.224l-7.01074,1.84473c-1.475.3869-1.3825,2.25963-1.63049,3.87146l-.72009,4.6803c-7.3251-1.19369-8.0579-1.65325-8.85938-.40723-4.10135,6.37828-2.62462,4.0817-3.9209,6.09766C48.966,66.045,50.71786,66.25344,46.79715,68.82407ZM21.46408,87.836,33.02029,68.61124l3.80524-.61963,3.29492,5.12354L27.229,93.83139Zm-4.97174-5.17053L26.74509,65.37589c.28337,1.84083.19126,3.73876,1.91437,3.887L19.02176,85.296ZM63.17416,67.99161c10.1866,1.65882,9.32929,2.26406,10.06024-2.48456L83.50778,82.63889,72.89432,93.82632,59.85123,73.15866Z" fill="#b7905b"/>
    <path d="M72.70151,38.00723a22.694,22.694,0,1,0-20.80084,22.6156l.0376-.00287A22.73584,22.73584,0,0,0,72.70151,38.00723ZM52.02817,57.19748a19.29791,19.29791,0,1,1,17.271-19.19025A19.33168,19.33168,0,0,1,52.02817,57.19748Z" fill="#b7905b"/>
    <path d="M55.349,30.649c-2.2037-4.46522-2.69471-6.55389-5.349-6.55389-2.65089,0-3.12552,2.04848-5.34906,6.55389-4.92765.716-7.06589.53761-7.886,3.062-.83381,2.56631,1.0957,3.71562,4.58014,7.11249-.85771,5.00144-1.65585,6.89782.47522,8.44629,1.99994,1.453,3.72786.18237,5.88141-.94983.74838-.39344,1.4066-.73948,2.29834-1.20831,4.44262,2.33536,6.035,3.71651,8.17975,2.15814,2.0919-1.51987,1.361-3.28191.47516-8.44629.64884-.6325,2.97791-2.90276,3.71942-3.62555a3.40142,3.40142,0,0,0,.86072-3.48694C62.416,31.18974,60.321,31.3714,55.349,30.649Zm.83136,15.86884c-.51518-.27089-5.577-2.932-6.18036-3.24921l-6.18036,3.24921c.11759-.68553,1.05664-6.16058,1.18036-6.8819l-5-4.87378L46.90988,33.758,50,27.49667,53.09018,33.758,60,34.76212l-5,4.87378C55.29167,41.33632,56.11471,46.13475,56.18039,46.51779Z" fill="#b7905b"/>
  </g>
</svg>
