<svg xmlns="http://www.w3.org/2000/svg" viewBox="0 0 100 100">
  <title>3_def_c</title>
  <g>
    <path d="M39.67755,74.088,16.94312,51.28815C12.94318,55.28809,14.77008,63.70325,18,68.1355a4.30632,4.30632,0,0,1-2.08862-.90808c-1.0233-1.19963-3.30947-3.49905-4.42194-4.60712l-.09125-15.888A11.3333,11.3333,0,0,0,.06647,35.46411L0,35.46429V64.61578a12.95247,12.95247,0,0,0,2.405,6.59039c-.27033.26863,14.40332,14.43629,14.67749,14.70325A17.87649,17.87649,0,0,0,21.34546,89H18.65985v11H44.68433V89H41.87048A12.7025,12.7025,0,0,0,39.67755,74.088Zm1.60522,22.51038H22.06146V92.40155H41.28278ZM27.30731,89V87.71777L25.01953,86.925a14.66051,14.66051,0,0,1-5.564-3.45264C6.0633,70.43263,3.668,69.02873,3.40155,64.52563V39.60437a7.9527,7.9527,0,0,1,4.59509,7.14746c.03345,5.8235.06608,11.50971.0993,17.28949,1.0011.9971,3.98631,3.93861,5.22754,5.39374a7.32274,7.32274,0,0,0,4.58069,2.10065l6.92474.19507L20.749,66.13214a15.11979,15.11979,0,0,1-2.68506-8.9024L37.26324,76.48425A9.25045,9.25045,0,0,1,37.80109,89Z" fill="#d9ab6d"/>
    <path d="M99.93353,35.46411A11.3333,11.3333,0,0,0,88.60181,46.7323l-.09125,15.888-1.12543,1.121c-.46094.459-2.54987,2.61084-3.29657,3.48615A4.30641,4.30641,0,0,1,82,68.1355c3.22992-4.43225,5.05682-12.84741,1.05688-16.84735L60.32245,74.088A12.7025,12.7025,0,0,0,58.12952,89h-2.8139v11H81.34009V89H78.6546a17.87618,17.87618,0,0,0,4.26288-3.09058c.2602-.25335,14.9351-14.44726,14.67749-14.70325A12.95247,12.95247,0,0,0,100,64.61578V35.46429ZM96.59845,64.52557c-.27565,4.65836-3.384,6.60928-16.07239,18.96484A14.631,14.631,0,0,1,74.98047,86.925l-2.28778.79279V89H62.19891a9.2485,9.2485,0,0,1,.53229-12.51013L81.936,57.22974a15.11936,15.11936,0,0,1-2.68506,8.9024l-4.08038,5.59937,6.9256-.1958a7.32312,7.32312,0,0,0,4.58032-2.10065c1.20906-1.41731,4.22722-4.39736,5.22754-5.39374.03323-5.77988.06586-11.46607.0993-17.28949a7.95265,7.95265,0,0,1,4.59515-7.14746ZM77.93854,96.59839H58.71722V92.40155H77.93854Z" fill="#d9ab6d"/>
    <path d="M80.68683,29.63379V0H18.84113l.00293,29.72363C19.954,50.64852,34.15086,67.2079,49.764,73.28516,65.20036,67.27669,79.56432,50.81949,80.68683,29.63379ZM49.764,69.60742C45.75812,67.791,23.67511,56.5752,22.24347,29.63379V13.87207L29.565,25.03656l.00073,4.49371c.76273,14.374,9.57829,25.27219,20.19824,29.66113.72814-.30092.973-.39322,1.70227-.75824l4.86938,7.42523A46.07258,46.07258,0,0,1,49.764,69.60742ZM28.192,3.40234l5.04657,7.69531H29.56281l.00122,7.73578-7.32056-11.163V3.40234Zm49.09351,0,.002,26.1416a45.62944,45.62944,0,0,1-3.9809,16.60223L68.34613,38.582a36.73725,36.73725,0,0,0,1.619-9.1416V11.09766H50.32239L45.276,3.40234ZM49.764,55.48242A30.32881,30.32881,0,0,1,33.03186,30.323c-.08894-1.13773-.06671-.01708-.06671-6.30328V14.5H66.56378l.002,14.85059A30.43309,30.43309,0,0,1,49.764,55.48242ZM46.25549,11.09766h-8.95L32.25891,3.40234H41.209Zm8.161,45.63275a35.26487,35.26487,0,0,0,5.71033-4.63171l4.46979,6.8158a51.01244,51.01244,0,0,1-5.50616,4.94312Zm8.06311-7.24561a32.94674,32.94674,0,0,0,4.35486-7.00623L71.53015,49.639a45.626,45.626,0,0,1-4.58862,6.64948Z" fill="#d9ab6d"/>
  </g>
</svg>
