<svg xmlns="http://www.w3.org/2000/svg" viewBox="0 0 100 100">
  <title>4_lense_c</title>
  <g>
    <path d="M31.95554-.07669V8.07657h-7.7876V46.05984a21.095,21.095,0,0,0-3.11237,30.175l-2.74615,2.74664-2.75165-2.752L1.67886,90.10745A5.593,5.593,0,0,0,9.589,98.01663L23.466,84.1387l-2.7514-2.75177,2.731-2.73151c.23938.20819.476.42.72235.61566v20.8056H92.1683V91.92307h7.7876V-.07669ZM96.55429,88.52151H35.35709V83.76242c.65649.06085,1.31525.09406,1.97412.09406a21.15931,21.15931,0,0,0,20.02234-28.0791H70.8898a1.70117,1.70117,0,0,0,0-3.40234h-15.042a20.70629,20.70629,0,0,0-5.00189-6.03467H86.95523a1.70068,1.70068,0,1,0,0-3.40137h-41.888a21.30776,21.30776,0,0,0-9.71014-1.37018V3.32492h61.1972Zm-7.7876,8.15363H27.56949V81.48178a21.05633,21.05633,0,0,0,4.386,1.66467v8.77661H88.76669Zm-61.1972-85.197h4.386V42.18484a21.061,21.061,0,0,0-4.386,1.66467Zm9.76172,33.39636a17.78736,17.78736,0,1,1-1.97412,35.46259A17.49493,17.49493,0,0,1,24.16794,74.614C13.7984,63.19626,21.99545,44.87454,37.33121,44.87454ZM4.08511,95.61234a2.19319,2.19319,0,0,1,0-3.09863L15.55777,81.04007l3.09766,3.09863L7.18375,95.61136A2.195,2.195,0,0,1,4.08511,95.61234Z" fill="#d9ab6d"/>
    <path d="M44.95523,18.02884h42a1.70068,1.70068,0,1,0,0-3.40137h-42a1.70068,1.70068,0,1,0,0,3.40137Z" fill="#d9ab6d"/>
    <path d="M44.95523,27.46585h42a1.70068,1.70068,0,1,0,0-3.40137h-42a1.70068,1.70068,0,1,0,0,3.40137Z" fill="#d9ab6d"/>
    <path d="M44.95523,36.90335h42a1.70068,1.70068,0,1,0,0-3.40137h-42a1.70068,1.70068,0,1,0,0,3.40137Z" fill="#d9ab6d"/>
    <path d="M45.54019,67.74026a1.70017,1.70017,0,0,0,2.4043,2.4043,11.62962,11.62962,0,0,0,0-16.42969,1.70084,1.70084,0,0,0-2.4043,2.40625A8.25315,8.25315,0,0,1,45.54019,67.74026Z" fill="#d9ab6d"/>
    <path d="M78.72958,74.79745c-.241-.09344-.36755-.508-.67908-.60364-2.50964-.77014-4.73138.58051-6.955,1.75458,1.47461-3.50177,3.85052-8.44135-1.2663-8.23-4.70825.19446-11.2099,7.13983-9.32355,11.915.66254,1.677,3.405.94635,2.7334-.7536-1.25092-3.1665,6.08264-9.49432,6.8208-7.75983.479,1.12567-2.46387,5.69708-2.65118,7.36029a1.42635,1.42635,0,0,0,1.79413,1.3667c2.06934-.61731,5.3089-3.54163,7.24921-3.29242.072.00922,1.74554,1.69031,2.051,1.81616,2.04663.84308,4.6358-.03967,6.782.33966a22.61684,22.61684,0,0,0,3.48163.52417,7.56828,7.56828,0,0,0,1.70026-.17975c.14838-.03143.29138-.0567.44891-.09814a1.42423,1.42423,0,0,0-.44891-2.78217,1.578,1.578,0,0,0-.30463.04877,5.89484,5.89484,0,0,1-1.39563.16547c-1.87061.03186-3.96411-.59167-5.73669-.75A14.36558,14.36558,0,0,1,78.72958,74.79745Z" fill="#d9ab6d"/>
  </g>
</svg>
