<svg xmlns="http://www.w3.org/2000/svg" viewBox="0 0 100 100">
  <title>5_q-mail</title>
  <g>
    <path d="M99.66765,8.70508a1.70338,1.70338,0,0,0-1.29395-.59668h-70.707A1.70111,1.70111,0,0,0,25.987,9.543l-8,50.333a1.7004,1.7004,0,0,0,1.67969,1.96777H57.15539a21.18768,21.18768,0,1,0,35.43195-4.79944l7.46606-46.96814A1.70065,1.70065,0,0,0,99.66765,8.70508ZM93.292,11.51074,59.44793,37.03223,31.99517,11.51074ZM28.84575,13.22845,49.37743,32.31525l-27.35675,23.85Zm-4.25995,45.213L51.88231,34.64386l6.29315,5.85028a1.70175,1.70175,0,0,0,2.18262.1123l6.53357-4.9267,5.49347,6.44049-4.51837-.0354-.07257,9.25964A20.51277,20.51277,0,0,0,59.121,58.44141ZM63.80535,83.28613a17.81061,17.81061,0,0,1-.29559-24.84473c.10193-.10706.19049-.222.29559-.32715A17.67835,17.67835,0,0,1,73.71416,53.131a17.74812,17.74812,0,0,1,8.81726.88452A17.66583,17.66583,0,0,1,88.9732,58.1106l.004.00366A17.7992,17.7992,0,0,1,63.80535,83.28613ZM81.556,47.631l-.01691,2.15961-1.93994-.0152c-.25989-.03949-.51929-.08258-.78027-.11243a21.34563,21.34563,0,0,0-5.30524.06476l-2.305-.01807.0329-4.19672,4.06464.03186,4.50049.03522,1.76532.01385Zm8.04944,6.50226a20.99427,20.99427,0,0,0-4.67664-2.81586l.07129-9.09833-8.1145-.06354L69.61223,33.6283,96.03258,13.70581Z" fill="#b7905b"/>
    <path d="M20.99383,12.58105a1.70127,1.70127,0,0,0-1.70117-1.70117H1.62664a1.70117,1.70117,0,1,0,0,3.40234h17.666A1.70127,1.70127,0,0,0,20.99383,12.58105Z" fill="#b7905b"/>
    <path d="M18.99383,25.72949a1.70127,1.70127,0,0,0-1.70117-1.70117H4.62664a1.70117,1.70117,0,1,0,0,3.40234h12.666A1.70127,1.70127,0,0,0,18.99383,25.72949Z" fill="#b7905b"/>
    <path d="M15.29265,37.17676h-7.666a1.70117,1.70117,0,0,0,0,3.40234h7.666a1.70117,1.70117,0,0,0,0-3.40234Z" fill="#b7905b"/>
    <path d="M12.95867,50.32422h-1.665a1.70117,1.70117,0,1,0,0,3.40234h1.665a1.70117,1.70117,0,1,0,0-3.40234Z" fill="#b7905b"/>
    <path d="M76.39031,58.91272a2.02272,2.02272,0,1,0-1.27545-.47131A1.98154,1.98154,0,0,0,76.39031,58.91272Z" fill="#b7905b"/>
    <circle cx="76.39031" cy="84.91266" r="2" fill="#b7905b"/>
    <circle cx="90.55205" cy="70.70093" r="2" fill="#b7905b"/>
    <circle cx="62.30218" cy="70.70093" r="2" fill="#b7905b"/>
    <path d="M82.43328,60.49121l-1.12891,1.35254L74.821,69.61133a1.70141,1.70141,0,0,0,1.30566,2.791h7.25a1.70117,1.70117,0,1,0,0-3.40234H79.7614l5.2832-6.3291a1.70074,1.70074,0,1,0-2.61133-2.17969Z" fill="#b7905b"/>
  </g>
</svg>
