<svg xmlns="http://www.w3.org/2000/svg" viewBox="0 0 100 100">
  <title>6_present</title>
  <g>
    <path d="M94.15234,7.79828,90.21387,1.9892,86.27539,7.79828l-5.80957,3.938,5.80957,3.93848,3.93848,5.80859,3.93848-5.80859L99.96,11.73627Zm-3.93848,7.62354-1.48926-2.19629-2.19629-1.48926,2.19629-1.48877,1.48926-2.19678,1.48926,2.19678,2.19629,1.48877-2.19629,1.48926Z" fill="#b7905b"/>
    <path d="M70.23828,22.05853c.01331-.00354.02466-.0105.03784-.01434.05487-.01617.10583-.03882.15784-.05988.05023-.02008.10162-.03778.14923-.06232a1.66517,1.66517,0,0,0,.17792-.11224c.03125-.02142.06458-.03992.09418-.06323a1.6984,1.6984,0,0,0,.19916-.18915c.00964-.0105.02087-.01935.03021-.03009A1.73277,1.73277,0,0,0,71.303,21.203c.00806-.01538.01361-.03162.02124-.04724a1.683,1.683,0,0,0,.12177-.32947l.00916-.04077a1.66567,1.66567,0,0,0,.04205-.374c0-.00751.00043-.01489.00031-.02246-.00055-.046.00592-.09058.00153-.13721a15.69955,15.69955,0,0,0-4.22949-8.81445,15.2738,15.2738,0,0,0-6.64886-3.7865c.00256-.02356.00226-.04694.00378-.0705.00372-.05573.002-.11139.00018-.16705-.00165-.053-.003-.10608-.00958-.15845-.0069-.055-.01917-.10913-.03137-.16327-.012-.05255-.02368-.105-.04047-.15619-.01691-.05139-.03894-.10107-.06073-.15088-.022-.05017-.04382-.10028-.07056-.14819a1.69459,1.69459,0,0,0-.09314-.14264c-.03-.04285-.05939-.08606-.09344-.12622a1.72189,1.72189,0,0,0-.13318-.13483c-.02667-.02509-.04791-.05383-.07654-.07751a16.41843,16.41843,0,0,0-9.64844-3.39014,16.41752,16.41752,0,0,0-9.64746,3.39014c-.02838.0235-.0495.05212-.076.077a1.71752,1.71752,0,0,0-.13422.13593c-.03339.03949-.06232.082-.0918.12408a1.68707,1.68707,0,0,0-.09473.145c-.02631.04718-.04779.09662-.06952.146-.02216.05048-.04443.10077-.06152.15289-.01666.05072-.0282.10278-.0401.15491-.01233.0545-.0246.10889-.03156.16418-.00659.05231-.00793.10522-.00958.15814-.00177.05573-.00354.11139.00018.16705.00165.02509.00183.04993.00464.075a15.26867,15.26867,0,0,0-6.63312,3.782,15.68252,15.68252,0,0,0-4.22339,8.758l-.0061.05646c-.00262.02808.00177.05487.00049.08276a1.70785,1.70785,0,0,0,.00146.22986c.00275.03094.00842.06085.01288.09137a1.69017,1.69017,0,0,0,.0498.23792c.00616.02075.01324.04089.02014.06134a1.7057,1.7057,0,0,0,.1095.25714l.01013.01892a1.67335,1.67335,0,0,0,1.03973.82733l12.246,3.28125H9.34644V39.59192h5.70831V62.13647L13.251,59.47552l-5.33789,7.873L.04,72.68549l7.873,5.33789,5.33789,7.873,1.80377-2.66095V98.0108H85.30524V39.59192h5.70837V25.33978H57.99231ZM87.612,36.19037H65.68v-7.449H87.612ZM81.90369,94.60925H65.68V39.59192H81.90369Zm-24.89038,0V39.59192h5.26514V94.60925ZM15.05475,68.19885l1.08392,1.59894.61719.4184L18.4563,71.3689l1.94214,1.31659-1.94214,1.317-1.70044,1.15314-.61719.41852L15.05475,77.1731,13.251,79.83392,10.3623,75.57416,6.10254,72.68549l4.25977-2.8877L13.251,65.538ZM18.4563,78.21753l.13159-.19415,7.873-5.33789-7.873-5.33691-.13159-.19415V39.59192H34.68V94.60925H18.4563ZM12.748,28.74133H34.68v7.449H12.748ZM33.26721,18.09094a11.51859,11.51859,0,0,1,2.62146-4.24823,11.52191,11.52191,0,0,1,4.248-2.62122,13.43164,13.43164,0,0,1,1.351-.41L47.17334,23.0047,32.92169,19.186C33.00873,18.86,33.124,18.48822,33.26721,18.09094ZM67.82886,19.182,53.562,23.0047l5.68988-12.20227a13.071,13.071,0,0,1,1.34973.40521,10.87184,10.87184,0,0,1,6.88275,6.88275C67.62708,18.48633,67.74194,18.85669,67.82886,19.182ZM62.27844,35.7608v.42957H57.01331V28.99353h5.26514Zm-15.53021.30194V28.99353h6.86353v7.19684H46.74823ZM38.0816,28.99353h5.26508v7.19684H38.0816V28.99353ZM56.77954,8.0575,50.36768,21.808,43.95331,8.05219c.30359-.18341.65991-.38385,1.07458-.58643a11.58433,11.58433,0,0,1,10.66119,0C56.1098,7.67029,56.47162,7.87268,56.77954,8.0575ZM38.0816,39.59192h5.26508V94.60925H38.0816Zm8.66663,55.01733V39.66016h6.86353v54.9491Z" fill="#b7905b"/>
  </g>
</svg>
