<svg xmlns="http://www.w3.org/2000/svg" viewBox="0 0 100 100">
  <title>7_Friendship_c</title>
  <g>
    <circle cx="12.02386" cy="35.12726" r="2" fill="#d9ab6d"/>
    <path d="M100,37.16705,74.48248,5.93109,62.05872,16.08038l2.694,3.29767H58.10486a19.88351,19.88351,0,0,0-3.62665.33258H36.22986c-.43335,0-.863.01556-1.28937.043l3.00079-3.67322L25.51752,5.93109,0,37.16705l11.7337,9.58557a19.76944,19.76944,0,0,0,3.62939,12.0578l-.84369.84369a6.99337,6.99337,0,0,0,5.45624,11.92316,7.01167,7.01167,0,0,0,7.49823,7.53717,7.01633,7.01633,0,0,0,8.26654,7.40662,6.97071,6.97071,0,0,0,2.04388,4.82526h.00006a6.97655,6.97655,0,0,0,4.94873,2.04987,7.07867,7.07867,0,0,0,5.29822-2.39929c1.09776,1.09782,2.72655,3.072,5.98309,3.072a7.02549,7.02549,0,0,0,6.90491-5.72369,7.01668,7.01668,0,0,0,10.09949-6.8,7.0102,7.0102,0,0,0,7.5-7.5,7.02247,7.02247,0,0,0,5.46521-11.974l-1.31995-1.31995A19.72919,19.72919,0,0,0,87.87164,47.075ZM81.57874,69.60516a3.59127,3.59127,0,0,1-4.8772.20667c-5.64218-6.18-6.64769-6.80244-7.90955-5.46082a1.68957,1.68957,0,0,0-.004,2.32428l-.00525.00525c.42259.42259,5.126,5.09685,5.50275,5.54749A3.61359,3.61359,0,0,1,71.5144,78.1673c-1.90826,0-2.19252-.75819-7.82635-6.392l-.00317.00317a1.70264,1.70264,0,0,0-2.41534-.01538c-.011.01093-.0199.02362-.03064.03485a1.6874,1.6874,0,0,0,.13055,2.4693l5.20929,5.20929c.07782.07782.137.16809.20679.25153A3.61359,3.61359,0,0,1,64.0144,85.6673c-2.0127,0-2.276-.8417-7.82635-6.392l-.01031.01025a1.69008,1.69008,0,0,0-2.31433.07117c-.01111.011-.02.02368-.03076.035a1.68889,1.68889,0,0,0,.13055,2.4693l2.61554,2.61554a3.6296,3.6296,0,0,1-2.56433,6.1908c-1.73292,0-2.50575-1.00355-3.62537-2.12317a6.99785,6.99785,0,0,0-.60242-9.20007V79.344a6.95521,6.95521,0,0,0-3.27545-1.83948,7.018,7.018,0,0,0-5.57739-11.85A7.05148,7.05148,0,0,0,38.899,60.18939v-.00006A7.023,7.023,0,0,0,31.24048,58.666a6.99789,6.99789,0,0,0-11.8573-3.87567l-1.57507,1.57507c-3.92836-5.94737-2.29665-11.15707-2.53-12.543L31.67072,23.75616a16.37242,16.37242,0,0,1,4.55914-.64392h10.3175a20.04015,20.04015,0,0,0-4.58289,4.58728L22.2334,47.4306a13.27714,13.27714,0,0,0,18.77661,0l8.19849-8.19843h7.56085c4.89333,5.00289,8.82,9.01746,13.71014,14.01709l-.04474.01093c5.216,5.3101,2.55869,2.631,11.144,11.21631A3.62446,3.62446,0,0,1,81.57874,69.60516ZM40.4505,83.59314c1.65164-1.65164,2.52412-2.8974,4.38733-2.8974a3.53319,3.53319,0,0,1,3.12189,1.84c1.6053,2.84358-.94363,4.66574-2.68317,6.40527a3.606,3.606,0,1,1-4.826-5.3479Zm-8.53656-1.41876A3.60281,3.60281,0,0,1,30.85175,79.61c0-1.9576.58295-2.085,8.01331-9.51538,3.37271-3.37271,8.52135,1.73592,5.12866,5.1286-7.69,7.69-7.6169,8.01331-9.51544,8.01331A3.60256,3.60256,0,0,1,31.91394,82.17438Zm-7.5-7.5a3.61964,3.61964,0,0,1-.02759-5.09515c.01025-.0105.01721-.02313.02763-.03355q3.4745-3.4745,6.95107-6.951c3.339-3.33927,8.53573,1.65372,5.09473,5.09473-7.55367,7.55367-7.58,8.04718-9.48151,8.04718A3.60256,3.60256,0,0,1,24.41394,74.67438Zm-7.48926-7.528a3.60114,3.60114,0,0,1,0-5.087c5.03049-5.03049,5.44915-5.91736,7.40723-5.91736a3.5956,3.5956,0,0,1,2.58466,6.09052c-5.12922,5.12922-5.5038,5.96735-7.44836,5.96735A3.57354,3.57354,0,0,1,16.92468,67.14636ZM33.155,16.56268C32.82,16.97269,12.27644,42.12,11.94153,42.53L4.78632,36.68475c8.7888-10.75836,12.51652-15.32145,21.21344-25.96735ZM78.60938,56.69659h.00006L61.18414,38.8811a21.19117,21.19117,0,0,0,4.37024-1.33936,1.70426,1.70426,0,1,0-1.36792-3.12164l-.0011-.00415c-3.90174,1.72952-6.31115,1.41461-14.97687,1.41461a3.40174,3.40174,0,0,0-2.40527.99628l-8.19849,8.19849A9.89517,9.89517,0,0,1,27.46729,47.0072c.338-.338,17.00844-16.972,17.26312-17.32764a16.52531,16.52531,0,0,1,13.37445-6.9h9.42664c2.91763,3.57154,12.8869,15.77488,16.94415,20.74133a3.38846,3.38846,0,0,0-.15668,1.54083,16.29356,16.29356,0,0,1-4.07666,13.26776ZM88.05847,42.53C86.15055,40.1947,68.86035,19.02966,66.845,16.56268l7.15521-5.84528L95.21368,36.68475l-4.806,3.92615Z" fill="#d9ab6d"/>
    <path d="M85.97614,35.12726a2.00008,2.00008,0,0,0,4,0A2.00008,2.00008,0,0,0,85.97614,35.12726Z" fill="#d9ab6d"/>
  </g>
</svg>
